<?xml version="1.0" standalone="no"?>
<!DOCTYPE svg PUBLIC "-//W3C//DTD SVG 1.1//EN" "http://www.w3.org/Graphics/SVG/1.1/DTD/svg11.dtd" >
<svg xmlns="http://www.w3.org/2000/svg">
<metadata>Generated by IcoMoon</metadata>
<defs>
<font id="icomoon" horiz-adv-x="1024">
<font-face units-per-em="1024" ascent="960" descent="-64" />
<missing-glyph horiz-adv-x="1024" />
<glyph unicode="&#x20;" horiz-adv-x="512" d="" />
<glyph unicode="&#xe900;" glyph-name="airplay" d="M240.811 764.459c-23.253-6.272-48.725-27.051-59.52-48.512-10.923-21.803-10.581-13.739-10.581-244.181-0.043-143.573 0.555-212.309 1.835-219.221 6.149-30.037 29.668-53.227 59.398-58.808l0.463-0.072c6.699-1.152 26.283-1.707 50.133-1.365 43.904 0.64 47.445 1.493 54.485 13.397 4.736 8.149 4.907 29.141 0.256 36.864-6.699 11.008-9.472 11.648-55.211 12.587-36.693 0.768-41.643 1.195-44.373 3.883-2.859 2.901-3.072 13.909-3.499 206.507-0.299 141.696 0.128 206.208 1.408 212.437 1.809 10.26 8.509 18.637 17.557 22.748l0.192 0.078c6.613 2.987 18.048 3.115 258.645 3.115s252.032-0.128 258.645-3.115c9.301-4.267 15.445-12.032 17.664-22.443 2.645-12.331 2.645-409.472 0-415.275-3.285-7.168-7.893-7.936-47.872-7.936-35.072 0-38.101-0.256-44.032-3.584-9.771-5.461-12.885-12.032-12.885-27.136 0-14.976 3.499-22.571 12.843-28.117 5.419-3.157 9.344-3.499 45.099-4.011 23.851-0.341 43.435 0.213 50.133 1.365 30.193 5.653 53.713 28.843 59.779 58.398l0.083 0.482c1.28 6.912 1.877 75.648 1.835 219.221 0 230.443 0.341 222.379-10.581 244.181-10.965 21.845-36.437 42.368-60.288 48.597-14.677 3.84-527.317 3.755-541.611-0.085zM493.781 350.080c-9.778-3.218-18.073-8.692-24.578-15.827l-0.040-0.045c-8.064-8.533-79.189-109.568-84.992-120.661-3.925-7.637-4.437-10.581-4.437-25.771 0.043-15.36 0.512-18.005 4.779-26.112 6.016-11.477 15.659-21.163 27.179-27.221l9.003-4.736h182.613l9.003 4.736c11.643 6.253 20.942 15.566 27.008 26.872l0.171 0.349c4.267 8.107 4.736 10.752 4.779 26.112 0 15.147-0.512 18.133-4.395 25.6-6.187 11.861-77.397 112.725-85.888 121.643-10.624 11.093-22.528 16.213-39.253 16.853-1.383 0.098-2.996 0.154-4.623 0.154-5.795 0-11.423-0.71-16.804-2.046l0.478 0.1zM545.024 239.104c7.932-10.719 18.409-25.732 28.598-40.953l3.231-5.127c0-0.555-29.525-1.024-65.621-1.024h-65.621l32.555 46.080c17.877 25.344 33.067 46.080 33.749 46.080 0.725 0 15.616-20.267 33.109-45.056z" />
<glyph unicode="&#xe901;" glyph-name="anchor" d="M483.456 764.587c-44.757-9.728-81.664-45.141-94.677-90.795-7.765-27.307-4.309-64.853 8.277-89.771 15.727-31.092 42.578-54.641 75.194-65.691l0.923-0.271 6.4-2.048v-321.877l-7.595 1.451c-69.176 12.731-126.82 53.965-161.282 110.814l-0.595 1.058c-14.72 24.32-26.923 59.605-31.019 89.643l-1.067 8.021 43.179 0.512c39.808 0.512 43.648 0.811 49.109 4.011 9.344 5.547 12.843 13.141 12.843 28.117 0 15.104-3.115 21.675-12.885 27.136-6.144 3.456-8.533 3.584-71.595 3.584s-65.451-0.128-71.595-3.584c-11.605-6.528-12.928-10.709-12.672-40.789 0.085-14.549 1.109-32.597 2.261-40.107 16.233-107.97 88.261-195.939 185.288-234.555l2.019-0.709c32.031-12.839 69.162-20.285 108.032-20.285s76.001 7.447 110.044 20.991l-2.012-0.706c99.046 39.325 171.074 127.295 187.102 233.616l0.204 1.648c1.152 7.509 2.176 25.557 2.261 40.107 0.256 30.080-1.067 34.261-12.672 40.789-6.144 3.456-8.533 3.584-71.595 3.584s-65.451-0.128-71.595-3.584c-9.771-5.461-12.885-12.032-12.885-27.136 0-14.976 3.499-22.571 12.843-28.117 5.461-3.2 9.301-3.499 49.109-4.011l43.179-0.512-1.067-8.021c-7.551-55.268-33.299-103.468-70.904-139.347l-0.093-0.088c-32.479-31.347-74.094-53.427-120.466-61.864l-1.432-0.216-7.595-1.451v321.877l6.4 2.048c27.437 9.376 50.158 26.612 66.114 49.001l0.276 0.407c15.445 22.571 21.803 43.648 21.803 72.533 0 30.251-6.571 50.987-23.808 75.093-18.072 24.638-44.264 42.392-74.575 49.369l-0.86 0.167c-14.336 3.029-42.197 3.029-56.32-0.043zM529.195 701.269c27.733-8.107 46.123-32.555 46.123-61.269 0-42.283-40.363-73.003-80.512-61.269-26.828 7.718-46.124 32.043-46.124 60.874 0 0.139 0 0.278 0.001 0.417v-0.021c0 42.283 40.363 73.045 80.512 61.269z" />
<glyph unicode="&#xe902;" glyph-name="angle" d="M645.973 683.52c-3.569-0.834-6.699-1.977-9.64-3.442l0.253 0.114c-2.347-1.195-97.195-94.848-210.773-208.085-150.827-150.357-207.531-207.957-210.304-213.547-4.949-9.941-4.864-16.896 0.341-27.947 2.195-5.49 6.084-9.917 11.012-12.735l0.124-0.065 6.869-3.883 257.152 0.171c256.213 0.213 257.152 0.213 263.381 3.712 9.643 5.419 12.757 12.032 12.757 27.093 0 14.976-3.499 22.571-12.843 28.117-5.675 3.285-9.088 3.499-74.624 3.968l-68.693 0.469-0.043 14.037c-0.83 67.673-34.241 127.371-85.243 164.236l-0.602 0.414-13.355 9.387 83.456 83.797c51.541 51.797 84.565 86.229 86.315 90.069 4.224 9.173 3.584 16.683-2.091 25.643-8.533 13.483-22.016 20.907-33.451 18.475zM471.552 414.464c44.587-22.912 76.16-74.88 76.245-125.611l0.043-11.52h-224.427l69.973 69.973c38.485 38.485 70.571 69.973 71.339 69.973 0.725 0 3.84-1.28 6.827-2.816z" />
<glyph unicode="&#xe903;" glyph-name="archive" d="M228.693 744.277c-28.468-6.859-50.286-29.349-56.067-57.674l-0.082-0.481c-2.304-12.459-2.475-88.533-0.213-102.357 3.541-21.589 20.651-43.904 40.875-53.291l10.325-4.821 0.043-161.28c0.043-88.704 0.768-166.144 1.621-172.032 3.541-24.363 19.968-46.592 42.283-57.173l11.563-5.461h465.92l11.563 5.461c22.699 10.795 39.125 33.28 42.325 58.112 0.811 6.357 1.493 83.712 1.536 171.947l0.085 160.427 10.325 4.821c20.224 9.387 37.333 31.701 40.875 53.291 2.261 13.824 2.091 89.899-0.213 102.357-6.082 29.629-29.038 52.585-58.184 58.584l-0.483 0.083c-15.189 2.816-551.381 2.347-564.096-0.512zM786.304 679.637c2.731-2.773 3.029-6.997 3.029-44.971v-41.899l-4.011-3.285c-3.968-3.157-10.752-3.243-273.323-3.243-262.485 0-269.397 0.085-273.323 3.243-3.968 3.243-4.011 3.627-4.523 42.325-0.555 41.387 0.256 47.275 6.869 49.963 2.304 0.896 113.451 1.408 273.067 1.237 255.872-0.341 269.312-0.512 272.213-3.371zM735.573 360.192v-162.859l-3.797-2.688c-3.371-2.347-27.051-2.645-219.776-2.645s-216.405 0.299-219.776 2.645l-3.797 2.688v325.76h447.147v-162.901zM403.627 444.757c-16.213-7.467-23.552-25.045-16.981-40.704 3.371-8.107 6.955-11.989 14.763-15.957 6.016-3.072 11.648-3.243 110.592-3.243s104.576 0.171 110.592 3.243c23.893 12.203 22.613 45.227-2.219 56.661-6.4 2.987-13.269 3.157-108.373 3.157s-101.973-0.171-108.373-3.157z" />
<glyph unicode="&#xe904;" glyph-name="arrow-chevron-horizontal" d="M415.531 606.72c-4.309-2.133-32.725-29.355-77.056-73.813-77.44-77.611-76.843-76.885-72.363-92.16 1.835-6.229 12.117-17.237 74.069-79.232 79.147-79.147 77.824-78.123 93.525-73.899 9.429 2.56 22.784 15.915 25.344 25.344 4.096 15.317 3.712 15.829-58.496 78.293l-56.533 56.747 56.533 56.747c49.152 49.365 56.789 57.685 58.453 64 2.56 9.6 0.171 18.219-7.595 27.264-6.4 7.509-18.091 14.123-24.875 14.123-4.099-0.522-7.817-1.726-11.187-3.499l0.179 0.086zM585.771 606.507c-8.917-4.395-18.56-15.36-21.163-24.021-4.224-14.037-3.072-15.573 58.88-77.739l56.491-56.747-56.491-56.747c-62.379-62.592-63.104-63.616-58.709-78.293 2.859-9.515 16.256-22.827 25.515-25.344 15.701-4.224 14.379-5.248 93.525 73.899 63.403 63.403 72.192 72.832 73.856 79.232 4.181 15.915 5.205 14.635-72.149 92.203-69.461 69.632-78.080 77.184-88.32 77.184-4.264-0.575-8.122-1.852-11.619-3.716l0.184 0.090z" />
<glyph unicode="&#xe905;" glyph-name="arrow-chevron-left" d="M543.573 649.429c-4.395-2.176-39.851-36.48-98.432-95.147-100.779-101.035-98.261-97.963-93.696-113.536 1.835-6.315 14.421-19.541 95.403-100.565 102.571-102.571 98.901-99.499 114.859-95.232 9.429 2.56 22.784 15.915 25.344 25.344 4.224 15.744 5.76 13.824-79.829 99.627l-77.909 78.080 77.909 78.080c68.608 68.779 78.123 78.933 79.787 85.333 2.56 9.643 0.171 18.219-7.595 27.264-6.4 7.509-18.091 14.123-24.875 14.123-4.082-0.52-7.785-1.708-11.149-3.457l0.183 0.087z" />
<glyph unicode="&#xe906;" glyph-name="arrow-circle-left" d="M478.165 787.499c-79.569-8.238-149.839-42.717-203.222-94.504l0.086 0.083c-64.199-62.169-104.050-149.15-104.050-245.44 0-37.96 6.194-74.474 17.625-108.585l-0.7 2.409c38.921-114.842 133.908-201.033 251.513-226.825l2.268-0.417c101.717-21.248 209.579 5.461 287.915 71.296 39.339 33.067 66.944 68.224 88.875 113.152 58.667 120.277 41.259 265.515-43.989 366.933-33.067 39.339-68.224 66.944-113.152 88.875-43.762 21.856-95.333 34.649-149.893 34.649-11.718 0-23.298-0.59-34.712-1.742l1.437 0.117zM548.693 722.603c27.051-3.115 60.885-13.568 87.765-27.093 78.845-40.448 135.13-115.254 149.379-204.104l0.21-1.592c1.61-12.554 2.528-27.076 2.528-41.813s-0.919-29.26-2.702-43.514l0.173 1.7c-14.459-90.397-70.688-165.174-147.899-204.922l-1.562-0.731c-35.315-18.432-77.129-29.245-121.468-29.245-1.097 0-2.192 0.007-3.285 0.020l0.167-0.002c-0.927-0.012-2.022-0.018-3.119-0.018-44.339 0-86.153 10.813-122.949 29.946l1.481-0.701c-78.774 40.48-135.003 115.256-149.251 204.061l-0.211 1.592c-1.61 12.554-2.528 27.076-2.528 41.813s0.919 29.26 2.702 43.514l-0.173-1.7c15.147 98.773 83.925 183.381 176.853 217.643 44.373 16.341 84.309 20.864 133.888 15.147zM478.421 584.875c-2.987-1.579-31.701-29.013-63.829-60.885-67.84-67.371-69.461-69.675-61.525-87.125 3.541-7.808 116.224-120.832 125.355-125.739 23.339-12.544 54.656 18.048 42.795 41.813-1.493 2.987-15.488 18.304-31.061 33.963l-28.288 28.501 94.592 0.512c91.093 0.512 94.848 0.64 100.437 3.925 11.648 6.869 16.896 20.395 13.952 36.053-1.271 8.769-6.514 16.095-13.813 20.195l-0.139 0.072c-5.589 3.285-9.344 3.413-100.437 3.925l-94.592 0.512 28.288 28.501c15.573 15.659 29.568 30.976 31.061 33.963 7.168 14.379-1.323 33.237-18.944 42.112-3.405 1.623-7.399 2.571-11.615 2.571-4.458 0-8.669-1.060-12.393-2.942l0.157 0.072z" />
<glyph unicode="&#xe907;" glyph-name="arrow-down" d="M502.912 692.139c-8.256-1.688-15.068-6.807-18.999-13.769l-0.073-0.14c-3.328-5.675-3.413-9.301-3.883-185.771l-0.469-179.925-61.824 61.611c-68.139 67.883-68.565 68.181-83.371 63.744-9.301-2.773-22.741-16.213-25.515-25.515-4.565-15.189-6.741-12.544 92.885-112.853 49.877-50.219 93.397-92.8 96.683-94.592 3.985-1.997 8.683-3.166 13.653-3.166s9.668 1.169 13.833 3.248l-0.18-0.081c3.285 1.792 46.805 44.373 96.683 94.592 99.627 100.267 96.981 97.024 92.715 112.853-2.517 9.259-15.829 22.656-25.344 25.515-14.805 4.437-15.232 4.139-83.413-63.829l-61.867-61.653-0.085 174.891c-0.043 96.213-0.725 178.219-1.493 182.315-3.371 17.408-19.541 26.496-39.936 22.528z" />
<glyph unicode="&#xe908;" glyph-name="arrow-export" d="M497.195 701.568c-4.864-2.261-9.728-5.888-10.88-8.107-1.109-2.176-23.723-25.856-50.304-52.608-26.539-26.752-49.493-51.115-50.987-54.101-1.636-3.111-2.596-6.798-2.596-10.709 0-4.287 1.154-8.305 3.168-11.76l-0.060 0.111c7.211-13.909 22.741-23.808 34.091-21.675 8.704 1.664 13.824 5.589 38.187 29.653l21.76 21.504 0.085-105.813c0.043-58.155 0.725-109.099 1.493-113.195 3.029-15.616 11.563-21.589 30.848-21.589s27.819 5.973 30.848 21.589c0.768 4.096 1.451 55.040 1.493 113.195l0.085 105.813 21.76-21.504c24.363-24.064 29.483-27.989 38.187-29.653 11.349-2.133 26.88 7.765 34.091 21.675 1.954 3.344 3.108 7.361 3.108 11.649 0 3.911-0.96 7.598-2.658 10.837l0.061-0.129c-1.493 2.987-24.448 27.349-50.987 54.101-26.581 26.752-49.109 50.304-50.176 52.309-2.517 4.907-18.176 12.544-25.728 12.544-5.511-0.579-10.552-2.045-15.167-4.258l0.277 0.119zM278.955 478.891c-8.917-1.493-16.768-7.125-19.755-14.208-1.92-4.565-2.347-27.861-2.347-129.323 0-121.387 0.085-123.861 3.456-129.664 2.473-3.78 5.606-6.914 9.266-9.312l0.121-0.074c5.888-3.413 7.637-3.456 242.304-3.456s236.416 0.043 242.304 3.456c3.78 2.473 6.914 5.606 9.312 9.266l0.074 0.121c3.371 5.803 3.456 8.277 3.456 130.517v124.587l-3.712 5.973c-5.803 9.301-12.8 12.501-27.093 12.501-13.653 0-20.821-2.987-27.051-11.349-3.541-4.736-3.584-6.443-4.437-108.373l-0.853-103.552h-384l-0.853 103.552c-0.853 101.931-0.896 103.637-4.437 108.373-6.997 9.387-20.48 13.525-35.755 10.965z" />
<glyph unicode="&#xe909;" glyph-name="arrow-left" d="M459.136 650.069c-3.712-1.579-40.277-36.693-96.427-92.501-91.051-90.496-98.133-98.389-98.133-109.568s7.040-19.029 98.944-110.336c100.267-99.627 97.024-96.981 112.853-92.715 9.429 2.56 22.784 15.915 25.344 25.344 4.139 15.445 4.181 15.36-63.573 83.371l-61.611 61.824 179.925 0.469c176.469 0.469 180.096 0.555 185.771 3.883 7.438 4.171 12.681 11.498 13.934 20.118l0.018 0.149c2.944 15.659-2.304 29.184-13.952 36.053-5.675 3.328-9.301 3.413-185.771 3.883l-179.925 0.469 61.611 61.824c53.803 53.973 61.867 62.763 63.531 69.077 2.56 9.6 0.171 18.219-7.595 27.264-6.443 7.552-18.176 14.165-24.875 14.037-3.714-0.342-7.129-1.282-10.264-2.726l0.194 0.080z" />
<glyph unicode="&#xe90a;" glyph-name="arrow-left-to-line" d="M273.92 701.525c-8.073-2.829-14.15-9.47-16.136-17.707l-0.035-0.17c-1.237-4.523-1.664-81.067-1.365-239.317 0.469-230.571 0.512-232.747 3.925-238.635 5.547-9.344 13.141-12.843 28.117-12.843 15.104 0 21.675 3.115 27.136 12.885l3.584 6.357v471.808l-3.584 6.357c-2.244 3.782-5.159 6.928-8.61 9.366l-0.094 0.063c-6.955 4.096-24.235 5.077-32.939 1.835zM522.411 606.677c-9.216-4.224-142.805-135.723-147.243-145.024-1.74-4.031-2.752-8.724-2.752-13.653s1.012-9.623 2.84-13.883l-0.088 0.229c1.621-3.371 32.811-35.627 71.979-74.368 76.331-75.563 77.995-76.843 92.373-72.533 7.637 2.261 20.821 13.483 24.661 20.864 1.469 3.437 2.323 7.435 2.323 11.633 0 4.537-0.997 8.84-2.784 12.704l0.078-0.188c-1.536 2.987-20.096 22.912-41.216 44.245l-38.4 38.741 132.096 0.512c128.597 0.469 132.224 0.555 137.771 3.883 9.515 5.76 13.099 13.397 13.099 28.16s-3.584 22.4-13.099 28.16c-5.547 3.328-9.173 3.413-137.771 3.883l-132.096 0.512 38.4 38.741c21.12 21.333 39.68 41.259 41.216 44.245 3.456 6.699 3.627 17.877 0.384 24.064-5.504 10.496-22.315 22.613-31.232 22.485-3.958-0.713-7.493-1.898-10.774-3.518l0.235 0.105z" />
<glyph unicode="&#xe90b;" glyph-name="arrow-log-in" d="M273.92 701.44c-8.090-2.756-14.186-9.389-16.137-17.625l-0.033-0.167c-1.237-4.523-1.664-81.067-1.365-239.317 0.469-230.571 0.512-232.747 3.925-238.635 2.473-3.78 5.606-6.914 9.266-9.312l0.121-0.074c5.803-3.371 8.277-3.456 130.517-3.456h124.587l5.973 3.712c9.216 5.76 12.331 12.501 12.416 26.965 0.085 13.824-2.816 20.864-11.264 27.179-4.736 3.541-6.443 3.584-108.373 4.437l-103.552 0.853v384l103.552 0.853c101.931 0.853 103.637 0.896 108.373 4.437 8.448 6.315 11.349 13.312 11.264 27.264-0.085 14.379-3.456 21.589-12.715 27.179-5.504 3.328-9.045 3.413-127.701 3.797-102.144 0.299-123.136-0.043-128.853-2.091zM532.48 574.763c-8.021-3.883-110.976-105.472-114.645-113.109-1.74-4.031-2.752-8.724-2.752-13.653s1.012-9.623 2.84-13.883l-0.088 0.229c3.797-7.979 106.795-109.355 114.901-113.152 3.413-1.579 8.832-2.901 12.032-2.901 7.253 0 19.712 7.68 26.197 16.171 6.144 8.064 7.637 21.547 3.371 29.867-1.621 3.115-12.928 15.872-25.131 28.373l-22.229 22.741 110.72 0.469c107.179 0.512 110.848 0.64 116.352 3.925 9.515 5.76 13.099 13.397 13.099 28.16s-3.584 22.4-13.099 28.16c-5.504 3.285-9.173 3.413-116.352 3.925l-110.72 0.469 22.229 22.741c12.203 12.501 23.509 25.259 25.131 28.373 1.531 3.162 2.426 6.877 2.426 10.801 0 1.353-0.106 2.681-0.311 3.977l0.019-0.143c-0.896 10.795-6.613 19.2-18.091 26.453-8.96 5.675-16.939 6.315-25.899 2.005z" />
<glyph unicode="&#xe90c;" glyph-name="arrow-log-out" d="M273.92 701.44c-8.090-2.756-14.186-9.389-16.137-17.625l-0.033-0.167c-1.237-4.523-1.664-81.067-1.365-239.317 0.469-230.571 0.512-232.747 3.925-238.635 2.473-3.78 5.606-6.914 9.266-9.312l0.121-0.074c5.803-3.371 8.277-3.456 130.517-3.456h124.587l5.973 3.712c9.216 5.76 12.331 12.501 12.416 26.965 0.085 13.824-2.816 20.864-11.264 27.179-4.736 3.541-6.443 3.584-108.373 4.437l-103.552 0.853v384l103.552 0.853c101.931 0.853 103.637 0.896 108.373 4.437 8.448 6.315 11.349 13.312 11.264 27.264-0.085 14.379-3.456 21.589-12.715 27.179-5.504 3.328-9.045 3.413-127.701 3.797-102.144 0.299-123.136-0.043-128.853-2.091zM628.907 574.891c-14.123-7.424-24.32-23.211-22.187-34.432 1.664-8.832 5.547-13.824 29.653-38.272l21.504-21.76-105.813-0.085c-58.155-0.043-109.099-0.725-113.195-1.493-15.616-3.029-21.589-11.563-21.589-30.848s5.973-27.819 21.589-30.848c4.096-0.768 55.040-1.451 113.195-1.493l105.813-0.085-21.504-21.76c-24.064-24.363-27.989-29.483-29.653-38.187-2.133-11.349 7.765-26.88 21.675-34.091 3.344-1.954 7.361-3.108 11.649-3.108 3.911 0 7.598 0.96 10.837 2.658l-0.129-0.061c2.987 1.493 27.349 24.448 54.101 50.987 26.752 26.581 50.304 49.109 52.309 50.176 4.949 2.517 12.544 18.176 12.544 25.813s-7.595 23.296-12.544 25.813c-2.005 1.067-25.557 23.595-52.309 50.176-26.752 26.539-51.115 49.493-54.101 50.987-3.161 1.598-6.89 2.533-10.837 2.533-4.015 0-7.804-0.968-11.146-2.683l0.138 0.064z" />
<glyph unicode="&#xe90d;" glyph-name="arrow-right" d="M543.104 649.173c-8.917-4.395-18.56-15.36-21.163-24.021-4.267-14.165-3.499-15.147 63.915-82.816l61.611-61.824-179.925-0.469c-176.469-0.469-180.096-0.555-185.771-3.883-11.648-6.869-16.896-20.395-13.952-36.053 1.271-8.769 6.514-16.095 13.813-20.195l0.139-0.072c5.675-3.328 9.301-3.413 185.771-3.883l179.925-0.469-61.611-61.824c-67.883-68.139-68.181-68.565-63.744-83.371 2.859-9.515 16.256-22.827 25.515-25.344 15.829-4.267 12.587-6.912 112.853 92.715 50.219 49.877 92.8 93.397 94.592 96.683 1.988 3.985 3.19 8.668 3.285 13.622v0.032c-0.095 4.986-1.297 9.668-3.37 13.843l0.085-0.189c-5.163 9.429-183.040 185.387-190.592 188.501-8.405 3.541-12.672 3.328-21.376-0.981z" />
<glyph unicode="&#xe90e;" glyph-name="arrow-share" d="M651.947 704.043c-74.155-0.853-77.909-1.067-83.584-4.352-9.344-5.547-12.843-13.141-12.843-28.117 0-15.104 3.115-21.675 12.885-27.136 5.973-3.371 8.917-3.584 47.488-3.584 22.656 0 41.173-0.597 41.173-1.28 0-0.725-33.835-35.072-75.221-76.373-41.344-41.301-76.672-77.952-78.507-81.408-5.888-11.349-3.541-23.296 6.741-34.389 10.197-10.965 24.064-14.123 35.712-8.064 3.456 1.835 40.107 37.163 81.408 78.507 41.301 41.387 75.648 75.221 76.373 75.221 0.683 0 1.28-18.517 1.28-41.173 0-38.571 0.213-41.515 3.584-47.488 5.461-9.771 12.032-12.885 27.136-12.885 14.976 0 22.571 3.499 28.117 12.843 3.328 5.675 3.499 9.472 4.437 89.557l0.981 83.627-4.395 9.387c-3.755 8.064-5.717 10.069-13.653 14.080-4.415 2.567-9.686 4.146-15.313 4.308l-0.047 0.001c-3.371-0.213-41.045-0.768-83.755-1.28zM274.091 584.448c-7.908-2.939-13.909-9.361-16.21-17.351l-0.046-0.185c-1.451-5.205-1.835-54.4-1.493-181.205 0.512-171.563 0.555-174.165 3.968-180.011 2.473-3.78 5.606-6.914 9.266-9.312l0.121-0.074c5.845-3.413 8.448-3.456 180.011-3.968 126.805-0.341 176 0.043 181.205 1.493 8.443 2.371 15.011 8.742 17.614 16.885l0.050 0.181c0.939 3.371 1.664 34.261 1.664 73.131 0 64.469-0.128 67.627-3.499 74.581-8.875 18.347-44.757 19.584-55.424 1.963-3.072-5.12-3.456-9.685-4.224-55.083l-0.853-49.493h-266.24v266.24l49.493 0.853c45.397 0.768 49.963 1.152 55.083 4.224 17.621 10.667 16.384 46.549-1.963 55.424-6.997 3.371-9.941 3.499-75.435 3.371-37.461-0.085-70.357-0.811-73.088-1.664z" />
<glyph unicode="&#xe90f;" glyph-name="arrow-trending-up" d="M619.52 618.709c-123.861-1.024-116.821-0.213-124.587-14.080-5.077-9.003-4.48-30.848 0.981-38.315 7.893-10.795 7.808-10.795 88.192-10.795 40.107 0 72.96-0.597 72.96-1.28 0-0.725-32.64-33.92-72.533-73.813l-72.533-72.533-44.8 44.629c-24.619 24.576-47.275 45.867-50.261 47.36-3.359 1.643-7.31 2.604-11.485 2.604-4.606 0-8.94-1.17-12.719-3.229l0.14 0.070c-8.021-4.181-174.763-171.349-178.688-179.2-1.432-3.097-2.267-6.722-2.267-10.541 0-6.306 2.277-12.081 6.053-16.547l-0.031 0.038c13.739-16.939 26.88-21.376 40.107-13.525 4.053 2.432 38.827 35.925 77.269 74.453l69.931 70.059 46.123-45.909c39.68-39.509 47.147-46.165 53.376-47.829 16.128-4.309 12.885-6.955 109.696 89.643 48.341 48.256 88.491 87.765 89.173 87.765s1.237-32.853 1.237-72.96c0-80.384 0-80.299 10.795-88.192 7.467-5.461 29.312-6.059 38.315-0.981 13.909 7.808 13.056 0 14.123 130.56l0.939 116.053-4.352 9.387c-3.755 8.064-5.632 10.027-13.611 14.080-4.416 2.562-9.687 4.14-15.311 4.308l-0.049 0.001c-3.371-0.213-55.637-0.811-116.181-1.28z" />
<glyph unicode="&#xe910;" glyph-name="arrow-up" d="M500.053 691.584c-5.461-2.688-33.707-29.995-98.389-95.104-99.627-100.309-97.451-97.664-92.885-112.853 2.859-9.515 16.256-22.827 25.515-25.344 15.445-4.139 15.36-4.181 83.371 63.573l61.824 61.611 0.469-179.925c0.469-176.469 0.555-180.096 3.883-185.771 6.869-11.648 20.395-16.896 36.053-13.952 8.769 1.271 16.095 6.514 20.195 13.813l0.072 0.139c3.328 5.675 3.413 9.301 3.883 185.771l0.469 179.925 61.824-61.611c68.011-67.755 67.925-67.712 83.371-63.573 9.429 2.56 22.784 15.915 25.344 25.344 4.267 15.829 6.912 12.587-92.715 112.853-91.307 91.904-99.157 98.944-110.336 98.944-4.459-0.612-8.489-1.963-12.135-3.933l0.188 0.093z" />
<glyph unicode="&#xe911;" glyph-name="asterisk-1" d="M495.061 764.245c-7.405-3.867-12.658-10.98-13.892-19.4l-0.017-0.142c-0.768-4.096-1.451-59.819-1.493-123.904s-0.384-116.48-0.768-116.48c-0.341 0-44.715 25.472-98.56 56.576s-101.973 58.496-107.008 60.8c-15.403 7.083-26.88 3.541-36.224-11.221-10.709-16.853-10.155-29.824 1.749-39.936 3.627-3.072 51.968-31.744 107.435-63.659 55.424-31.915 100.779-58.411 100.779-58.88s-45.355-26.965-100.779-58.88c-55.467-31.915-103.808-60.587-107.435-63.659-11.904-10.112-12.459-23.083-1.749-39.936 9.344-14.763 20.821-18.304 36.224-11.221 5.035 2.304 53.163 29.696 107.008 60.8-18.965-8.923 13.224 9.835 45.517 28.432l53.001 28.144c0.341 0 0.811-54.741 1.067-121.6 0.512-118.059 0.597-121.771 3.925-127.403 6.315-10.709 11.179-12.971 28.16-12.971s21.845 2.261 28.16 12.971c3.328 5.632 3.413 9.344 3.925 127.403 0.256 66.859 0.725 121.6 1.067 121.6s44.672-25.472 98.517-56.576c53.845-31.104 101.973-58.496 107.008-60.8 15.403-7.083 26.88-3.541 36.224 11.221 10.709 16.853 10.155 29.824-1.749 39.936-3.627 3.072-51.968 31.744-107.435 63.659-55.424 31.915-100.779 58.411-100.779 58.88s45.355 26.965 100.779 58.88c55.467 31.915 103.808 60.587 107.435 63.659 11.904 10.112 12.459 23.083 1.749 39.936-9.344 14.763-20.821 18.304-36.224 11.221-5.035-2.304-53.163-29.696-107.008-60.8 18.965 8.923-13.224-9.835-45.517-28.432l-53.001-28.144c-0.341 0-0.811 54.699-1.067 121.6-0.512 118.059-0.597 121.771-3.925 127.403-5.931 10.069-11.435 12.885-26.155 13.483-10.069 0.384-14.464-0.213-18.944-2.56z" />
<glyph unicode="&#xe912;" glyph-name="asterisk-2" d="M495.061 764.245c-7.405-3.867-12.658-10.98-13.892-19.4l-0.017-0.142c-0.768-4.096-1.451-55.040-1.493-113.237l-0.085-105.813-77.227 77.056c-42.496 42.411-79.829 78.379-83.072 80-22.741 11.349-53.205-20.139-41.387-42.837 2.005-3.883 35.456-38.613 79.573-82.645l76.032-75.947-110.507-0.853c-106.624-0.811-110.72-0.981-116.309-4.267-10.709-6.315-12.971-11.179-12.971-28.16s2.261-21.845 12.971-28.16c5.589-3.285 9.685-3.456 116.309-4.267l110.507-0.853-76.032-75.947c-44.117-44.032-77.568-78.763-79.573-82.645-12.117-23.339 18.901-54.357 42.24-42.24 3.883 2.005 38.613 35.456 82.645 79.573l75.947 76.032 0.853-110.507c0.811-106.624 0.981-110.72 4.267-116.309 6.315-10.709 11.179-12.971 28.16-12.971s21.845 2.261 28.16 12.971c3.285 5.589 3.456 9.685 4.267 116.309l0.853 110.507 75.947-76.032c44.032-44.117 78.763-77.568 82.645-79.573 23.339-12.117 54.357 18.901 42.24 42.24-2.005 3.883-35.456 38.613-79.573 82.645l-76.032 75.947 110.507 0.853c106.624 0.811 110.72 0.981 116.309 4.267 10.709 6.315 12.971 11.179 12.971 28.16s-2.261 21.845-12.971 28.16c-5.589 3.285-9.685 3.456-116.309 4.267l-110.507 0.853 76.032 75.947c44.117 44.032 77.568 78.763 79.573 82.645 12.117 23.339-18.901 54.357-42.24 42.24-3.883-2.005-38.613-35.456-82.645-79.573l-75.947-76.032-0.853 110.507c-0.811 106.624-0.981 110.72-4.267 116.309-5.931 10.069-11.435 12.885-26.155 13.483-10.069 0.384-14.464-0.213-18.944-2.56z" />
<glyph unicode="&#xe913;" glyph-name="award" d="M471.893 764.501c-74.566-13.025-136.587-57.988-172.422-119.984l-0.634-1.189c-21.461-37.419-31.275-75.776-31.147-121.941 0.128-38.869 6.997-69.717 23.125-103.296 11.221-23.467 21.419-39.083 37.76-57.728l12.672-14.507 0.469-109.781c0.469-106.88 0.555-109.952 3.925-115.712 4.565-7.68 12.16-11.989 23.339-13.141 8.533-0.896 12.8 0.512 76.032 24.832l66.987 25.728 66.517-25.557c56.448-21.717 67.883-25.557 75.776-25.557 11.52 0 18.347 5.035 24.32 17.835l4.011 8.619 0.043 106.325v106.283l12.8 14.677c16.512 18.859 24.32 30.805 36.736 56.021 16.981 34.475 23.979 65.109 24.107 104.96 0.128 46.165-9.685 84.523-31.147 121.941-36.658 63.712-99.413 108.887-173.291 121.106l-1.429 0.195c-18.987 3.072-59.904 3.029-78.549-0.128zM541.995 701.355c39.424-6.869 72.149-24.32 100.053-53.376 36.309-37.803 52.651-81.237 50.432-134.016-2.731-67.023-42.034-124.264-98.385-152.535l-1.028-0.467c-117.845-58.24-256.128 22.656-261.547 153.003-2.219 52.779 14.123 96.213 50.432 134.016 42.069 43.819 101.419 63.616 160.043 53.376zM423.253 294.4c30.507-12.8 73.813-18.901 109.909-15.488 24.917 2.304 49.749 8.021 67.584 15.488 7.040 2.987 14.165 5.803 15.787 6.315 2.816 0.853 2.987-2.603 2.987-56.363 0-31.488-0.555-57.6-1.28-57.984s-22.784 7.68-49.067 17.963c-40.149 15.659-49.28 18.645-57.173 18.645s-17.024-2.987-57.173-18.645c-26.283-10.283-48.341-18.347-49.067-17.963-0.683 0.384-1.28 26.496-1.28 57.984 0 53.76 0.171 57.216 2.987 56.363 1.621-0.512 8.747-3.328 15.787-6.315z" />
<glyph unicode="&#xe914;" glyph-name="bank" d="M492.715 810.88c-5.128-2.123-9.505-4.453-13.624-7.146l0.312 0.191c-10.496-6.955-240.555-183.339-246.955-189.355-4.256-4.597-7.901-9.85-10.748-15.57l-0.174-0.387c-14.421-29.312-3.157-63.573 26.197-79.872l9.131-5.035h510.293l9.131 5.035c29.312 16.256 40.576 50.688 26.155 80-2.816 5.767-6.16 10.735-10.088 15.175l0.061-0.071c-9.557 9.088-245.675 189.141-253.952 193.707-7.211 3.925-10.965 4.779-23.893 5.205-10.197 0.341-17.536-0.299-21.845-1.877zM625.408 662.101l111.232-85.248-112.341-0.427c-61.739-0.256-162.859-0.256-224.597 0l-112.341 0.427 111.915 85.76c61.525 47.189 112.555 85.547 113.365 85.248 0.853-0.256 51.584-38.869 112.768-85.76zM338.773 446.208c-6.869-2.219-9.984-4.821-14.293-11.904-3.541-5.803-3.627-7.467-3.627-81.877 0-83.669-0.043-83.243 10.795-91.179 7.467-5.461 29.312-6.059 38.315-0.981 13.611 7.637 13.184 4.736 13.184 91.307 0 74.155-0.128 77.013-3.456 82.731-2.379 3.673-5.4 6.721-8.931 9.060l-0.114 0.071c-6.443 3.755-24.149 5.333-31.872 2.773zM499.968 446.464c-8.107-2.603-11.52-5.205-15.531-11.648l-4.011-6.443v-75.947c0-72.875 0.128-76.16 3.413-81.749 6.315-10.709 11.179-12.971 28.16-12.971s21.845 2.261 28.16 12.971c3.285 5.589 3.413 8.875 3.413 81.749 0 75.093-0.043 76.032-3.712 81.92-2.447 3.67-5.503 6.726-9.056 9.099l-0.118 0.074c-6.016 3.541-23.723 5.248-30.72 2.944zM657.92 445.525c-8.129-2.847-14.238-9.562-16.18-17.88l-0.033-0.168c-1.237-4.48-1.664-31.573-1.365-79.744 0.555-82.133 0.213-79.915 13.696-87.467 9.003-5.077 30.848-4.48 38.315 0.981 10.837 7.936 10.795 7.509 10.795 90.965 0 73.685-0.085 75.861-3.584 82.048-2.244 3.782-5.159 6.928-8.61 9.366l-0.094 0.063c-6.955 4.096-24.235 5.077-32.939 1.835zM253.397 190.208c-12.715-3.712-18.432-14.293-17.621-32.469 0.683-15.104 3.712-20.907 13.525-25.899 5.504-2.816 21.547-2.987 262.699-2.987s257.195 0.171 262.699 2.987c9.813 4.992 12.843 10.795 13.525 26.027 0.512 11.349 0.043 14.421-3.157 20.096-2.341 3.992-5.402 7.311-9.032 9.876l-0.098 0.066c-5.205 3.157-12.672 3.243-261.376 3.541-145.152 0.128-258.261-0.384-261.163-1.237z" />
<glyph unicode="&#xe915;" glyph-name="bar-chart-horizontal" d="M275.627 700.8c-28.373-12.843-24.32-53.291 5.973-59.776 11.989-2.56 192.811-2.56 204.8 0 23.125 4.949 33.365 33.323 18.261 50.517-11.264 12.843-6.912 12.373-120.661 12.373-94.592 0-102.016-0.213-108.373-3.115zM280.107 478.72c-7.253-1.707-13.653-6.4-18.517-13.568-13.355-19.627-0.512-45.781 23.936-48.683 4.864-0.597 110.251-0.853 234.155-0.555 205.824 0.469 225.707 0.768 230.4 3.328 10.325 5.717 17.92 17.877 17.92 28.757s-7.595 23.040-17.92 28.757c-4.693 2.56-24.576 2.859-234.667 3.072-126.251 0.171-232.149-0.341-235.307-1.109zM273.92 252.288c-7.893-4.181-11.307-7.637-14.72-15.061-7.552-16.512 0.256-35.285 17.664-42.581 5.589-2.347 26.24-2.645 171.52-2.603 156.928 0.043 165.504 0.171 171.989 3.2 16.213 7.467 23.552 25.045 16.981 40.704-2.547 7.201-7.841 12.884-14.59 15.889l-0.172 0.069c-6.101 3.115-12.8 3.243-174.933 3.157-150.528-0.043-169.173-0.341-173.739-2.773z" />
<glyph unicode="&#xe916;" glyph-name="bar-chart-vertical" d="M499.115 700.8c-7.723-3.541-15.488-11.861-17.408-18.688-1.664-5.973-1.664-462.251 0-468.224 3.115-11.179 17.92-21.803 30.293-21.803s27.179 10.624 30.293 21.803c1.664 5.973 1.664 462.251 0 468.224-3.115 11.179-17.92 21.803-30.293 21.803-4.722-0.306-9.108-1.423-13.129-3.211l0.244 0.097zM723.669 573.312c-7.007-2.677-12.525-7.917-15.503-14.545l-0.070-0.175c-3.115-6.101-3.243-12.885-3.243-174.592s0.128-168.491 3.243-174.592c12.203-23.893 45.227-22.613 56.661 2.219 3.029 6.485 3.157 15.019 3.157 172.373s-0.128 165.888-3.157 172.373c-7.467 16.213-25.515 23.68-41.088 16.939zM275.627 444.757c-8.661-4.011-15.829-11.605-17.963-19.072-2.261-7.979-2.219-203.477 0.085-211.712 2.603-9.344 14.635-19.712 24.704-21.205 1.625-0.295 3.496-0.463 5.406-0.463 15.257 0 28.003 10.749 31.079 25.086l0.038 0.209c2.475 11.563 2.517 194.005 0.043 204.757-4.693 20.267-25.173 30.848-43.392 22.4z" />
<glyph unicode="&#xe917;" glyph-name="battery" d="M266.24 658.645c-32.683-7.040-62.251-35.541-70.784-68.224-3.925-15.019-3.925-269.824 0-284.843 6.229-23.851 26.752-49.323 48.597-60.288 21.76-10.88 14.507-10.581 236.373-10.581 166.485 0 203.349 0.427 212.693 2.432 34.731 7.339 65.067 37.675 72.405 72.405 3.541 16.64 3.541 260.267 0 276.907-7.339 34.731-37.675 65.067-72.405 72.405-16.725 3.584-410.368 3.371-426.88-0.213zM685.397 594.432c6.827-3.755 15.616-13.781 17.28-19.755 1.707-6.059 1.707-247.296 0-253.355-1.664-5.973-10.453-16-17.28-19.755-4.864-2.688-20.523-2.944-199.851-3.371-135.893-0.299-197.248 0.128-203.52 1.408-10.26 1.809-18.637 8.509-22.748 17.557l-0.078 0.192c-2.944 6.485-3.115 14.251-3.115 130.645 0 116.693 0.171 124.117 3.157 130.56 2.011 4.211 4.554 7.818 7.601 10.929l-0.007-0.007c9.387 8.619 6.571 8.533 217.003 8.192 181.077-0.299 196.693-0.555 201.557-3.243zM818.347 573.952c-7.63-2.9-13.506-8.915-16.155-16.45l-0.058-0.19c-2.261-8.149-2.261-210.475 0-218.624 6.912-24.917 52.821-24.917 59.733 0 2.261 8.149 2.261 210.475 0 218.624-4.139 14.848-25.344 22.955-43.52 16.64z" />
<glyph unicode="&#xe918;" glyph-name="bell" d="M475.307 764.629c-47.915-8.875-85.589-27.904-115.499-58.368-32.939-33.621-53.931-75.861-59.264-119.168-1.195-9.813-1.877-57.173-1.877-130.987v-115.627h-32.64c-29.909 0-33.109-0.299-38.955-3.584-9.771-5.461-12.885-12.032-12.885-27.136 0-14.976 3.499-22.571 12.843-28.117 5.888-3.456 7.381-3.456 284.971-3.456s279.083 0 284.971 3.456c9.344 5.547 12.843 13.141 12.843 28.117 0 15.104-3.115 21.675-12.885 27.136-5.845 3.285-9.045 3.584-38.955 3.584h-32.64v115.627c0 73.813-0.683 121.173-1.877 130.987-5.376 43.819-25.216 83.584-59.221 118.869-25.173 26.112-50.432 42.752-78.165 51.499-28.885 9.088-81.792 12.544-110.763 7.168zM555.179 699.861c25.003-6.016 43.477-17.536 65.28-40.661 23.637-25.088 36.437-51.712 40.064-83.371 1.152-10.283 1.621-55.296 1.323-125.269l-0.512-109.227h-298.667l-0.512 109.227c-0.299 69.973 0.171 114.987 1.323 125.269 3.84 33.579 16.811 59.563 42.709 85.547 11.691 11.776 19.584 18.048 28.288 22.571 14.969 7.537 32.373 13.808 50.593 17.925l1.545 0.294c13.355 2.389 54.784 0.981 68.565-2.304zM401.92 189.44c-12.757-4.523-19.157-17.28-17.365-34.517 1.152-11.221 5.077-17.92 13.184-22.485 6.272-3.541 7.893-3.584 114.261-3.584s107.989 0.043 114.261 3.584c9.771 5.461 12.885 12.032 12.885 27.136 0 14.976-3.499 22.571-12.843 28.117-5.76 3.371-8.747 3.456-111.744 3.84-88.149 0.299-106.965-0.043-112.64-2.091z" />
<glyph unicode="&#xe919;" glyph-name="bell-2" d="M473.6 764.459c-23.52-4.68-44.313-11.477-63.93-20.406l1.808 0.737c-49.237-22.912-86.4-65.835-103.339-119.296-8.704-27.435-9.387-39.936-9.429-167.68l-0.043-117.333h-32.64c-29.909 0-33.109-0.299-38.955-3.584-9.771-5.461-12.885-12.032-12.885-27.136 0-14.976 3.499-22.571 12.843-28.117 5.888-3.456 7.381-3.456 284.971-3.456s279.083 0 284.971 3.456c9.344 5.547 12.843 13.141 12.843 28.117 0 15.104-3.115 21.675-12.885 27.136-5.845 3.285-9.045 3.584-38.955 3.584h-32.64l-0.043 116.48c0 90.837-0.555 120.405-2.432 134.4-6.699 49.579-33.707 96.597-75.477 131.371-28.843 23.979-56.235 36.267-92.971 41.728-22.144 3.285-62.037 3.285-80.811 0zM558.635 698.965c45.611-11.861 85.419-53.803 98.859-104.235 3.797-14.336 3.84-15.36 3.84-133.931v-119.467h-298.667v118.613c0 129.024 0.128 131.029 9.643 155.733 9.984 25.856 31.488 51.797 53.589 64.725 18.707 10.495 40.468 18.34 63.554 22.313l1.214 0.173c12.245 1.963 54.741-0.469 67.968-3.925zM400.939 251.307c-19.072-9.685-22.272-23.168-10.88-45.781 13.867-27.605 28.8-43.861 53.504-58.283 22.741-13.312 41.557-18.347 68.437-18.347 35.115 0 64.981 11.52 92.16 35.499 18.389 16.256 35.84 46.464 35.84 62.123 0 12.843-4.352 19.072-17.536 25.301-21.163 10.027-33.664 5.205-44.757-17.152-16.768-33.792-52.267-49.92-86.443-39.296-20.011 6.229-35.072 19.413-44.971 39.296-11.264 22.741-24.107 27.435-45.355 16.64z" />
<glyph unicode="&#xe91a;" glyph-name="book" d="M299.093 786.731c-17.749-3.84-32.213-12.032-46.507-26.368-12.971-13.013-18.816-22.613-25.003-41.003-3.029-8.96-3.157-21.12-3.157-271.36s0.128-262.4 3.157-271.36c6.144-18.261 12.075-28.032 25.003-41.088 14.635-14.805 27.52-22.059 46.592-26.283 10.923-2.389 36.821-2.645 236.715-2.219l224.427 0.469 9.771 4.779c10.837 5.333 20.267 15.147 25.813 26.795l3.669 7.68v564.907l-4.907 12.8c-12.544 32.683-38.357 55.509-70.571 62.336-16.64 3.541-408.704 3.456-425.003-0.085zM716.245 722.645c7.145-3.092 12.777-8.558 16.005-15.384l0.081-0.19c3.115-6.144 3.243-13.141 3.243-207.787v-201.472h-214.656c-174.976 0-216.32-0.427-223.573-2.304l-8.917-2.304v203.733c0 196.949 0.128 203.989 3.243 210.133 3.273 6.845 8.675 12.233 15.336 15.404l0.195 0.084c6.144 2.432 402.603 2.56 409.045 0.085zM401.92 636.288c-7.893-4.181-11.307-7.637-14.72-15.061-7.552-16.512 0.256-35.285 17.664-42.581 5.461-2.304 20.011-2.645 107.52-2.603 94.72 0.043 101.589 0.213 107.989 3.2 16.213 7.467 23.552 25.045 16.981 40.704-2.547 7.201-7.841 12.884-14.59 15.889l-0.172 0.069c-6.016 3.072-11.605 3.243-110.933 3.157-92.117-0.043-105.216-0.384-109.739-2.773zM735.573 202.24v-32.427h-206.421c-142.421 0-209.109 0.597-215.083 1.877-29.397 6.272-34.944 46.123-8.277 59.307l7.381 3.669h422.4v-32.427z" />
<glyph unicode="&#xe91b;" glyph-name="bookmark" d="M363.904 721.024c-20.139-5.248-35.157-14.165-51.712-30.635-11.392-11.349-16.171-17.664-21.632-28.587-13.227-26.411-12.544-12.032-11.989-259.029l0.469-220.16 5.291-10.453c7.467-14.635 13.653-21.973 25.173-29.739 25.216-16.981 58.923-17.792 82.603-1.963 3.968 2.688 31.061 27.819 60.203 55.936 29.141 28.075 54.485 51.755 56.363 52.608 0.986 0.445 2.137 0.704 3.349 0.704s2.363-0.259 3.402-0.725l-0.053 0.021c1.835-0.853 27.136-24.491 56.192-52.523 29.099-28.075 56.192-53.248 60.245-55.936 23.765-15.915 57.387-15.147 82.688 1.877 11.52 7.765 17.707 15.104 25.173 29.739l5.291 10.453 0.469 220.16c0.555 246.997 1.237 232.619-11.989 259.029-5.461 10.923-10.24 17.237-21.632 28.587-16.768 16.683-31.659 25.429-52.352 30.72-12.587 3.2-19.243 3.371-148.139 3.285-127.189-0.085-135.723-0.299-147.413-3.371zM647.979 657.664c13.269-4.949 26.069-17.749 31.019-31.019l3.669-9.813v-208.683c0-164.309-0.469-209.28-2.133-211.456-1.786-1.866-4.072-3.239-6.644-3.904l-0.098-0.021c-4.181-0.981-7.253 1.408-32 25.088-87.381 83.627-88.192 84.309-99.328 89.472-9.984 4.608-12.373 4.992-30.464 4.992s-20.48-0.384-30.464-4.992c-11.136-5.163-11.947-5.845-99.328-89.472-24.747-23.68-27.819-26.069-32-25.088-2.666 0.698-4.949 2.069-6.737 3.921l-0.004 0.004c-1.664 2.176-2.133 47.147-2.133 211.456v208.683l3.669 9.813c5.908 13.932 16.68 24.842 30.136 30.787l0.371 0.146c9.173 3.499 11.563 3.584 135.979 3.669 125.611 0.085 126.763 0.043 136.491-3.584z" />
<glyph unicode="&#xe91c;" glyph-name="bubble-chart" d="M621.227 830.976c-25.671-2.911-49.043-10.313-70.159-21.425l1.081 0.519c-52.256-27.124-89.828-76.342-100.559-134.94l-0.177-1.167c-14.507-83.328 26.283-165.931 100.736-204.032 30.336-15.531 52.523-20.779 87.851-20.779s57.515 5.248 87.851 20.779c64.171 32.811 103.296 97.237 103.296 170.069 0 39.765-10.069 73.557-31.403 105.643-27.667 41.589-70.262 71.368-119.975 81.788l-1.241 0.218c-13.611 2.816-46.123 4.693-57.301 3.328zM670.251 764.459c37.333-8.277 73.685-39.381 88.448-75.691 12.075-29.696 12.075-67.84 0-97.536-14.891-36.608-50.517-66.944-89.301-75.989-14.891-3.499-43.904-3.499-58.795 0-33.29 8.574-60.876 28.827-78.751 56.030l-0.31 0.503c-12.209 19.382-19.452 42.957-19.452 68.224s7.244 48.842 19.768 68.762l-0.315-0.538c16.597 25.984 45.781 47.787 74.325 55.509 18.347 4.992 43.819 5.248 64.384 0.725zM315.947 488.192c-61.269-11.648-108.245-56.917-120.448-116.096-3.328-16-3.371-45.909-0.085-61.397 9.832-46.104 40.204-83.564 80.86-102.915l0.89-0.381c22.229-10.752 38.912-14.507 64.171-14.507s41.941 3.755 64.171 14.507c20.224 9.728 37.675 23.083 49.664 37.931 24.32 30.080 34.688 58.965 34.603 96.341-0.043 37.12-10.411 65.92-34.389 95.445-18.005 22.187-51.797 43.008-79.915 49.323-17.579 3.925-44.032 4.693-59.52 1.749zM366.933 422.357c59.136-17.152 79.488-94.421 36.651-139.051-17.621-18.304-37.248-26.752-62.251-26.752-82.048 0-116.437 103.723-50.773 153.088 21.973 16.555 48.171 20.907 76.373 12.715zM655.829 338.133c-37.291-9.429-70.016-43.648-77.312-80.853-3.029-15.36-1.408-44.715 3.2-57.472 11.684-30.686 35.444-54.501 65.317-66l0.774-0.262c8.747-3.243 13.483-3.755 34.859-3.755 27.392 0 35.456 1.92 54.443 13.141 12.075 7.125 30.165 25.216 37.291 37.291 11.221 18.987 13.141 27.051 13.141 54.443 0 21.376-0.512 26.112-3.755 34.859-11.76 30.658-35.574 54.43-65.486 65.873l-0.776 0.261c-12.672 4.608-47.701 6.016-61.696 2.475zM704.512 271.061c26.88-16.512 27.392-55.424 0.981-72.192-6.457-4.151-14.339-6.617-22.798-6.617-15.541 0-29.137 8.325-36.572 20.759l-0.108 0.194c-4.565 7.424-5.163 9.899-5.163 21.333 0 11.051 0.683 14.080 4.736 20.992 7.030 12.833 20.443 21.39 35.855 21.39 1.513 0 3.006-0.082 4.476-0.243l-0.182 0.016c6.983-0.095 13.461-2.182 18.912-5.716l-0.139 0.084z" />
<glyph unicode="&#xe91d;" glyph-name="building" d="M301.483 764.459c-31.531-7.637-61.141-32.128-76.245-63.019-12.459-25.472-11.904-12.757-11.904-274.517v-234.581l-22.613-0.597c-25.899-0.683-30.805-2.517-37.12-13.781-3.2-5.675-3.669-8.747-3.157-20.096 0.683-15.403 3.712-21.077 13.909-26.155 5.973-2.987 20.779-3.115 347.861-2.987 322.603 0.085 341.973 0.256 347.648 3.115 9.984 4.949 13.013 10.709 13.696 26.027 0.512 11.349 0.043 14.421-3.157 20.096-6.315 11.264-11.221 13.099-37.12 13.781l-22.613 0.597v135.339c0 146.731-0.256 151.168-9.344 171.051-11.383 23.688-29.586 42.577-52.047 54.513l-0.647 0.314c-18.987 9.344-27.435 10.795-69.803 11.733l-38.827 0.896v47.659c0 55.083-1.536 66.389-11.904 87.595-15.317 31.317-44.843 55.509-77.013 63.061-15.659 3.712-234.325 3.627-249.6-0.043zM544.768 699.179c9.429-4.651 20.864-15.573 25.259-24.149 6.656-13.099 6.827-19.456 6.827-254.635v-228.395h-117.547l-0.512 64.427c-0.512 60.843-0.725 64.768-3.968 70.229-6.315 10.709-11.179 12.971-28.16 12.971s-21.845-2.261-28.16-12.971c-3.243-5.461-3.456-9.387-3.968-70.229l-0.512-64.427h-117.547v228.395c0 157.909 0.555 231.467 1.877 238.464 2.196 14.884 10.472 27.494 22.176 35.425l0.181 0.116c12.928 9.515 11.819 9.472 128.512 9.088l107.52-0.341 8.021-3.968zM354.816 635.52c-9.557-5.547-12.629-12.117-12.629-27.093s3.499-22.571 12.843-28.117c5.675-3.328 8.619-3.456 71.637-3.456s65.963 0.128 71.637 3.456c9.344 5.547 12.843 13.141 12.843 28.117 0 15.104-3.115 21.675-12.885 27.136-6.144 3.456-8.491 3.584-71.808 3.541-63.275-0.043-65.707-0.171-71.637-3.584zM354.816 507.52c-9.557-5.547-12.629-12.117-12.629-27.093s3.499-22.571 12.843-28.117c5.675-3.328 8.619-3.456 71.637-3.456s65.963 0.128 71.637 3.456c9.344 5.547 12.843 13.141 12.843 28.117 0 15.104-3.115 21.675-12.885 27.136-6.144 3.456-8.491 3.584-71.808 3.541-63.275-0.043-65.707-0.171-71.637-3.584zM719.317 496.683c9.216-4.565 19.243-14.976 23.68-24.533 3.627-7.893 3.669-8.917 4.181-144.043l0.469-136.107h-107.648v309.077l36.267-0.512c32-0.469 37.077-0.896 43.051-3.883z" />
<glyph unicode="&#xe91e;" glyph-name="bulleted-list" d="M218.069 712.619c-16.811-5.376-25.216-18.475-25.216-39.253 0.043-16.299 2.219-24.235 8.875-31.787 6.656-7.595 14.592-10.923 28.885-12.16 15.488-1.323 28.459 2.816 36.395 11.563 7.168 7.936 9.429 15.701 9.472 32.384 0 17.28-5.376 28.629-16.683 35.285-6.571 3.84-10.155 4.651-22.443 5.035-8.064 0.256-16.725-0.213-19.285-1.067zM359.253 701.44c-12.715-4.523-19.157-17.28-17.365-34.517 1.152-11.221 5.077-17.92 13.184-22.485l6.357-3.584h225.024c210.901 0 225.451 0.213 230.912 2.987 9.813 4.992 12.843 10.795 13.525 26.027 0.512 11.349 0.043 14.421-3.157 20.096-2.341 3.992-5.402 7.311-9.032 9.876l-0.098 0.066c-5.205 3.157-12.245 3.243-228.949 3.627-189.653 0.299-224.597-0.043-230.4-2.091zM221.013 489.003c-9.728-2.517-13.909-4.864-19.2-10.923-6.741-7.637-8.917-15.531-8.96-31.872 0-17.323 5.376-28.629 16.811-35.371 7.211-4.224 9.472-4.651 25.003-4.651s17.792 0.427 25.003 4.651c11.435 6.741 16.811 18.048 16.811 35.371-0.043 16.64-2.304 24.448-9.429 32.341-9.216 10.197-29.269 14.763-46.037 10.453zM364.373 478.891c-15.701-2.688-22.101-11.648-22.101-30.891 0-15.232 2.901-21.76 12.245-27.563l6.443-4.011h225.28c222.208 0 225.365 0.043 231.083 3.413 10.709 6.315 12.971 11.179 12.971 28.16s-2.261 21.845-12.971 28.16c-5.717 3.371-9.088 3.413-225.963 3.627-121.088 0.128-223.232-0.256-226.987-0.896zM223.403 265.387c-21.419-3.712-30.507-16.085-30.549-41.6 0-15.488 2.859-24.405 10.24-31.787 7.509-7.509 16.299-10.24 32.725-10.24 10.496 0 14.379 0.811 22.016 4.693 6.375 2.614 11.338 7.577 13.891 13.784l0.061 0.168c3.883 7.68 4.693 11.477 4.693 22.187 0 15.829-2.133 23.936-8.107 31.061-8.277 9.813-27.307 14.805-44.971 11.733zM354.816 251.52c-9.557-5.547-12.629-12.117-12.629-27.093s3.499-22.571 12.843-28.117c5.888-3.413 7.68-3.456 232.064-3.456 219.563 0 226.304 0.085 231.509 3.243 3.729 2.631 6.789 5.95 9.051 9.795l0.080 0.147c3.2 5.675 3.669 8.747 3.157 20.096-0.683 15.232-3.712 21.035-13.525 26.027-5.461 2.773-19.968 2.987-231.125 2.944l-225.28-0.043-6.144-3.541z" />
<glyph unicode="&#xe91f;" glyph-name="calendar" d="M354.816 763.52c-11.904-6.912-12.544-9.557-13.184-53.12l-0.512-38.827h-22.144c-13.397 0-27.392-1.067-35.328-2.688-41.131-8.363-76.928-42.624-87.424-83.669-3.243-12.672-3.371-19.456-3.371-185.003 0-165.419 0.128-172.331 3.371-185.003 5.291-20.736 13.995-35.584 30.72-52.267 16.683-16.725 31.531-25.429 52.267-30.72 12.757-3.285 19.797-3.371 232.789-3.371s220.032 0.085 232.789 3.371c20.736 5.291 35.584 13.995 52.267 30.72 16.725 16.683 25.429 31.531 30.72 52.267 3.243 12.672 3.371 19.584 3.371 185.003 0 165.547-0.128 172.331-3.371 185.003-10.496 41.045-46.293 75.307-87.424 83.669-9.941 1.718-21.39 2.701-33.069 2.701-0.794 0-1.588-0.005-2.38-0.014l0.121 0.001h-22.144l-0.512 38.827c-0.64 43.691-1.28 46.336-13.44 53.163-8.277 4.651-27.051 4.992-35.627 0.597-12.373-6.315-12.843-8.021-13.781-52.181l-0.853-39.552h-213.333l-0.853 39.552c-0.939 44.16-1.408 45.867-13.781 52.181-8.576 4.352-27.819 4.011-35.883-0.64zM727.168 606.123c11.093-2.603 22.912-10.197 29.696-19.115 8.021-10.539 11.136-21.205 11.136-38.315v-15.36h-512v15.36c0 17.109 3.115 27.776 11.136 38.315 6.613 8.619 18.56 16.512 28.885 19.029 13.013 3.157 417.749 3.243 431.147 0.085zM768 353.365c0-115.456-0.043-116.992-3.669-126.677-5.888-14.125-16.894-25.131-30.644-30.88l-0.375-0.139-9.813-3.669h-422.997l-9.813 3.669c-14.125 5.888-25.131 16.894-30.88 30.644l-0.139 0.375c-3.627 9.685-3.669 11.221-3.669 126.677v116.821h512v-116.821z" />
<glyph unicode="&#xe920;" glyph-name="cam-2" d="M284.16 701.269c-41.429-8.576-78.976-45.056-88.661-86.187-3.883-16.384-3.883-317.781 0-334.165 9.813-41.728 47.488-77.867 89.856-86.315 19.797-3.925 433.493-3.925 453.291 0 42.368 8.448 80.043 44.587 89.856 86.315 3.883 16.384 3.883 317.781 0 334.165-9.813 41.728-47.488 77.867-89.856 86.315-19.157 3.797-436.011 3.669-454.485-0.128zM722.816 638.976c5.547-1.024 12.843-3.243 16.213-4.949 8.576-4.395 19.499-15.829 24.149-25.259l3.968-8.021v-305.493l-3.968-8.021c-4.651-9.429-15.573-20.864-24.149-25.259-12.971-6.613-20.395-6.827-227.029-6.827s-214.059 0.213-227.029 6.827c-8.576 4.395-19.499 15.829-24.149 25.259l-3.968 8.021v305.493l3.968 8.021c4.395 8.96 15.36 20.693 23.253 24.875 12.8 6.784 16.896 6.912 226.347 7.083 139.435 0.085 205.483-0.469 212.395-1.749zM329.387 584.32c-11.179-4.437-19.243-16.853-19.243-29.653 0-25.771 28.032-40.32 49.877-25.856 19.413 12.843 17.28 43.648-3.755 53.803-7.936 3.84-19.627 4.608-26.88 1.707zM492.373 541.824c-28.542-6.379-51.895-24.654-64.983-49.226l-0.254-0.523c-28.416-55.893 1.664-121.557 62.933-137.301 14.635-3.755 39.339-2.432 53.504 2.859 21.077 7.893 36.267 19.797 47.787 37.461 12.715 19.584 15.275 28.416 15.189 52.907-0.043 18.219-0.64 22.827-4.053 31.573-12.288 31.531-36.181 53.205-67.584 61.397-7.109 1.492-15.277 2.346-23.644 2.346-6.671 0-13.215-0.543-19.59-1.587l0.696 0.094zM528.043 475.648c19.968-11.648 20.693-40.576 1.365-54.059-6.144-4.224-9.003-5.077-17.067-5.035-11.947 0.043-19.243 3.669-25.856 12.8-3.957 5.168-6.341 11.724-6.341 18.836 0 8.274 3.226 15.794 8.489 21.371l-0.014-0.015c5.929 6.293 14.318 10.212 23.622 10.212 5.803 0 11.25-1.524 15.963-4.195l-0.161 0.084z" />
<glyph unicode="&#xe921;" glyph-name="capsule" d="M560.171 730.453c-26.837-4.864-55.040-16.213-78.891-31.787-18.048-11.776-207.531-201.003-219.392-219.093-23.424-35.712-34.901-73.344-34.901-114.347 0-99.669 70.357-182.613 169.6-199.893 22.699-3.968 59.392-2.432 81.792 3.371 24.338 6.528 45.657 16.476 64.727 29.481l-0.727-0.468c14.208 9.515 30.080 24.661 112.768 107.392 101.973 102.101 107.861 108.8 122.197 138.624 13.483 28.032 19.669 55.467 19.669 87.253 0 0.106 0 0.232 0 0.358 0 99.69-72.251 182.505-167.246 198.936l-1.203 0.172c-17.664 3.072-51.371 3.072-68.395 0zM619.733 667.349c32.299-5.632 57.899-20.608 81.408-47.616 29.781-34.176 39.851-82.645 26.709-128.299-7.936-27.52-14.208-36.309-57.045-79.744l-38.357-38.912-195.627 195.541 38.016 37.717c41.515 41.173 51.584 48.683 75.733 56.363 13.118 4.622 28.245 7.292 43.995 7.292 8.9 0 17.601-0.853 26.025-2.481l-0.857 0.138zM548.309 289.28c-43.435-42.965-52.139-49.195-79.744-57.131-45.269-13.013-93.355-3.2-127.829 26.155-43.605 37.077-60.288 91.733-44.587 146.261 7.936 27.52 14.208 36.309 57.045 79.744l38.357 38.912 195.627-195.541-38.869-38.4z" />
<glyph unicode="&#xe922;" glyph-name="card-search" d="M216.149 764.459c-41.088-9.984-77.184-47.872-85.547-89.813-3.925-19.797-3.925-433.493 0-453.291 6.784-34.091 32.64-66.901 64.768-82.261 21.632-10.283 19.883-10.197 164.523-10.197 130.859-0.043 132.053 0 138.368 3.541 9.771 5.461 12.885 12.032 12.885 27.136 0 14.976-3.499 22.571-12.843 28.117-5.803 3.371-9.045 3.456-136.491 4.309l-130.56 0.853-8.021 3.968c-9.429 4.651-20.864 15.573-25.259 24.149-6.443 12.672-6.827 22.315-6.827 169.301v143.061h641.707v-32.64c0-29.909 0.299-33.109 3.584-38.955 5.461-9.771 12.032-12.885 27.136-12.885 14.976 0 22.571 3.499 28.117 12.843 3.328 5.76 3.456 8.917 3.925 102.357 0.555 109.227 0.213 113.451-11.52 137.387-15.317 31.317-44.843 55.509-77.013 63.061-15.915 3.755-575.403 3.712-590.933-0.043zM800.768 699.179c9.472-4.651 20.864-15.573 25.301-24.277 4.992-9.813 6.955-26.027 6.443-52.821l-0.512-24.747h-640l-0.512 24.747c-0.853 42.965 4.011 57.685 23.893 72.32 13.44 9.899-2.56 9.429 299.179 9.088l278.187-0.341 8.021-3.968zM657.28 445.525c-61.269-11.648-108.245-56.917-120.448-116.096-3.328-16-3.371-45.909-0.085-61.397 9.832-46.104 40.204-83.564 80.86-102.915l0.89-0.381c22.272-10.752 38.912-14.507 64.171-14.507 25.173 0.043 43.136 4.053 64.128 14.379l16.043 7.851 26.88-27.008c32.853-32.981 40.619-39.083 51.413-40.021 15.36-1.408 32.64 14.336 34.005 30.933 0.187 1.147 0.294 2.468 0.294 3.814 0 4.002-0.944 7.784-2.62 11.135l0.065-0.144c-1.664 3.2-16.768 19.755-33.579 36.821l-30.549 30.976 5.12 9.131c11.819 21.077 17.237 43.221 17.237 70.571 0 37.419-10.325 66.133-34.389 95.787-18.005 22.187-51.797 43.008-79.915 49.323-17.579 3.925-44.032 4.693-59.52 1.749zM708.267 379.691c27.648-8.021 49.621-31.317 57.131-60.459 1.603-6.163 2.523-13.239 2.523-20.53 0-22.488-8.755-42.93-23.043-58.105l0.040 0.043c-17.621-18.304-37.248-26.752-62.251-26.752-82.048 0-116.437 103.723-50.773 153.088 21.973 16.555 48.171 20.907 76.373 12.715z" />
<glyph unicode="&#xe923;" glyph-name="card-shield" d="M216.149 764.459c-41.088-9.984-77.184-47.872-85.547-89.813-3.925-19.797-3.925-433.493 0-453.291 6.784-34.091 32.64-66.901 64.768-82.261 21.632-10.283 19.883-10.197 164.523-10.197 130.859-0.043 132.053 0 138.368 3.541 9.771 5.461 12.885 12.032 12.885 27.136 0 14.976-3.499 22.571-12.843 28.117-5.803 3.371-9.045 3.456-136.491 4.309l-130.56 0.853-8.021 3.968c-9.429 4.651-20.864 15.573-25.259 24.149-6.443 12.672-6.827 22.315-6.827 169.301v143.061h641.707v-32.64c0-29.909 0.299-33.109 3.584-38.955 5.461-9.771 12.032-12.885 27.136-12.885 14.976 0 22.571 3.499 28.117 12.843 3.328 5.76 3.456 8.917 3.925 102.357 0.555 109.227 0.213 113.451-11.52 137.387-15.317 31.317-44.843 55.509-77.013 63.061-15.915 3.755-575.403 3.712-590.933-0.043zM800.768 699.179c9.472-4.651 20.864-15.573 25.301-24.277 4.992-9.813 6.955-26.027 6.443-52.821l-0.512-24.747h-640l-0.512 24.747c-0.853 42.965 4.011 57.685 23.893 72.32 13.44 9.899-2.56 9.429 299.179 9.088l278.187-0.341 8.021-3.968zM667.605 371.84c-36.309-18.432-68.224-35.541-70.912-37.973-7.083-6.485-9.6-13.781-9.6-27.947 0-60.715 26.069-130.005 66.645-176.981 28.075-32.555 67.371-62.592 84.352-64.512 9.003-1.024 14.635 1.024 29.909 10.752 36.234 24.048 65.935 55.030 87.816 91.264l0.717 1.28c22.485 38.528 34.261 76.416 37.973 122.155 2.261 27.349 0.768 34.987-8.491 43.563-3.755 3.499-32.256 18.901-71.851 38.827-55.296 27.861-66.816 33.067-73.088 33.067-6.315 0-17.664-5.205-73.472-33.493zM786.645 314.709c23.979-12.288 43.947-22.656 44.288-22.955 0.341-0.341-0.64-8.107-2.176-17.237-10.278-55.882-40.090-103.463-81.954-136.426l-0.478-0.363-5.376-3.797-9.941 8.363c-23.808 20.053-44.587 45.696-56.661 69.888-10.283 20.523-19.499 50.219-21.675 69.717l-1.152 10.581 44.16 22.187c8.877 4.947 23.887 12.405 39.090 19.52l6.648 2.795c0.853 0.043 21.205-9.984 45.227-22.272z" />
<glyph unicode="&#xe924;" glyph-name="cart" d="M210.731 702.251c-6.894-2.426-12.374-7.393-15.419-13.748l-0.069-0.161c-4.011-7.765-2.816-30.165 2.005-36.693 6.784-9.301 12.544-10.795 41.216-10.795 22.955 0 26.112-0.341 27.52-2.987 0.896-1.664 20.565-54.827 43.776-118.187 34.237-99.606 50.111-141.422 66.311-183.074l-19.421 56.738c16.555-39.253 50.347-65.621 91.733-71.595 16.128-2.347 204.8-2.261 221.696 0.085 37.394 5.442 68.571 28.027 85.712 59.383l0.304 0.606c4.779 8.917 56.875 161.365 64.768 189.44 1.416 4.592 2.231 9.87 2.231 15.339 0 21.189-12.239 39.519-30.033 48.307l-0.315 0.141-8.533 4.053-173.739 0.043c-171.989 0-173.781-0.043-180.608-3.499-8.405-4.309-13.355-14.037-13.397-26.368-0.043-17.109 5.845-27.093 18.56-31.36 4.181-1.365 50.261-1.92 163.285-1.92h157.483l-27.093-81.195c-18.688-55.851-28.629-83.2-31.915-87.637-8.048-11.765-20.584-19.954-35.088-22.11l-0.282-0.034c-13.696-2.517-191.104-2.56-205.013-0.043-16.341 2.987-31.232 13.568-38.229 27.179-1.664 3.285-23.552 61.867-48.597 130.219-50.913 149.913-67.194 193.032-83.663 236.058l35.578-105.796c-3.627 8.661-15.36 20.736-25.301 25.941-8.448 4.437-9.344 4.523-44.459 4.907-19.712 0.171-38.187-0.341-41.003-1.237zM412.331 274.645c-9.756-3.576-17.648-10.295-22.631-18.908l-0.11-0.206c-4.053-6.869-4.736-9.941-4.736-20.864s0.683-13.995 4.736-20.864c7.409-12.97 21.156-21.571 36.912-21.571 11.757 0 22.396 4.789 30.072 12.523l0.003 0.003c7.68 7.68 12.757 19.584 12.757 29.909 0 28.757-30.080 49.835-57.003 39.979zM667.435 274.389c-15.019-5.291-27.435-23.253-27.435-39.723 0-22.485 20.181-42.667 42.667-42.667 10.325 0 22.229 5.077 29.909 12.757 32.128 32.128-2.048 84.864-45.141 69.632z" />
<glyph unicode="&#xe925;" glyph-name="check" d="M629.76 564.864c-3.669-1.664-43.776-40.448-104.533-101.12l-98.517-98.432-39.723 39.424c-21.803 21.717-42.283 40.789-45.525 42.411-3.096 1.427-6.718 2.26-10.534 2.26-6.307 0-12.084-2.274-16.555-6.046l0.038 0.032c-16.939-13.696-21.376-26.88-13.525-40.107 2.389-4.053 28.416-31.275 57.813-60.501 46.336-46.123 54.443-53.461 60.715-55.125 16.384-4.352 10.496-9.344 134.059 113.963 61.781 61.653 113.963 114.731 115.968 117.931 2.361 3.915 3.758 8.642 3.758 13.696 0 5.953-1.938 11.453-5.218 15.904l0.052-0.074c-10.496 14.891-25.941 21.248-38.272 15.787z" />
<glyph unicode="&#xe926;" glyph-name="circle" d="M470.187 765.269c-21.342-3.029-40.354-7.559-58.657-13.644l2.337 0.673c-114.942-38.19-199.852-136.473-218.145-256.65l-0.223-1.782c-5.077-34.816-2.816-87.808 5.205-120.107 27.051-108.885 107.776-195.968 213.248-230.059 35.968-11.648 52.736-13.995 98.901-13.952 37.845 0.043 42.581 0.427 62.379 4.651 127.275 27.221 223.104 123.008 250.368 250.368 4.309 19.968 4.608 24.277 4.608 63.232s-0.299 43.264-4.608 63.232c-28.672 133.76-134.315 233.685-267.733 253.269-19.669 2.859-69.803 3.328-87.68 0.768zM562.347 698.837c101.888-21.419 178.688-98.432 200.747-201.344 3.2-14.933 3.84-23.168 3.84-49.493s-0.64-34.56-3.84-49.493c-22.144-103.296-98.304-179.456-201.6-201.6-25.856-5.547-73.131-5.547-98.987 0-103.381 22.187-179.243 98.005-201.643 201.6-5.547 25.685-5.547 72.96 0.043 98.987 23.552 109.995 109.056 189.483 220.373 204.8 18.091 2.475 61.611 0.64 81.067-3.456z" />
<glyph unicode="&#xe927;" glyph-name="circle-check" d="M478.165 787.499c-79.569-8.238-149.839-42.717-203.222-94.504l0.086 0.083c-64.199-62.169-104.050-149.15-104.050-245.44 0-37.96 6.194-74.474 17.625-108.585l-0.7 2.409c38.921-114.842 133.908-201.033 251.513-226.825l2.268-0.417c101.717-21.248 209.579 5.461 287.915 71.296 39.339 33.067 66.944 68.224 88.875 113.152 58.667 120.277 41.259 265.515-43.989 366.933-33.067 39.339-68.224 66.944-113.152 88.875-43.762 21.856-95.333 34.649-149.893 34.649-11.718 0-23.298-0.59-34.712-1.742l1.437 0.117zM548.693 722.603c27.051-3.115 60.885-13.568 87.765-27.093 78.845-40.448 135.13-115.254 149.379-204.104l0.21-1.592c1.61-12.554 2.528-27.076 2.528-41.813s-0.919-29.26-2.702-43.514l0.173 1.7c-14.459-90.397-70.688-165.174-147.899-204.922l-1.562-0.731c-35.315-18.432-77.129-29.245-121.468-29.245-1.097 0-2.192 0.007-3.285 0.020l0.167-0.002c-0.927-0.012-2.022-0.018-3.119-0.018-44.339 0-86.153 10.813-122.949 29.946l1.481-0.701c-78.774 40.48-135.003 115.256-149.251 204.061l-0.211 1.592c-1.61 12.554-2.528 27.076-2.528 41.813s0.919 29.26 2.702 43.514l-0.173-1.7c15.147 98.773 83.925 183.381 176.853 217.643 44.373 16.341 84.309 20.864 133.888 15.147zM606.72 542.464c-2.816-1.451-34.859-32.341-71.253-68.608l-66.133-65.92-23.467 23.253c-12.885 12.8-25.941 24.533-28.928 26.027-10.624 5.291-22.827 2.645-33.536-7.296-10.965-10.155-14.123-24.021-8.064-35.712 1.792-3.456 20.395-23.339 41.387-44.117 32.341-32.085 39.211-38.101 45.355-39.765 16.043-4.267 13.611-6.229 102.528 82.389 44.416 44.288 82.261 83.371 84.053 86.827 1.977 3.616 3.139 7.922 3.139 12.499 0 4.545-1.146 8.823-3.165 12.559l0.069-0.14c-8.789 17.067-27.989 25.301-41.984 18.005z" />
<glyph unicode="&#xe928;" glyph-name="circle-close-multiply" d="M478.165 787.499c-79.569-8.238-149.839-42.717-203.222-94.504l0.086 0.083c-64.199-62.169-104.050-149.15-104.050-245.44 0-37.96 6.194-74.474 17.625-108.585l-0.7 2.409c38.921-114.842 133.908-201.033 251.513-226.825l2.268-0.417c101.717-21.248 209.579 5.461 287.915 71.296 39.339 33.067 66.944 68.224 88.875 113.152 58.667 120.277 41.259 265.515-43.989 366.933-33.067 39.339-68.224 66.944-113.152 88.875-43.762 21.856-95.333 34.649-149.893 34.649-11.718 0-23.298-0.59-34.712-1.742l1.437 0.117zM548.693 722.603c27.051-3.115 60.885-13.568 87.765-27.093 78.845-40.448 135.13-115.254 149.379-204.104l0.21-1.592c1.61-12.554 2.528-27.076 2.528-41.813s-0.919-29.26-2.702-43.514l0.173 1.7c-14.459-90.397-70.688-165.174-147.899-204.922l-1.562-0.731c-35.315-18.432-77.129-29.245-121.468-29.245-1.097 0-2.192 0.007-3.285 0.020l0.167-0.002c-0.927-0.012-2.022-0.018-3.119-0.018-44.339 0-86.153 10.813-122.949 29.946l1.481-0.701c-78.774 40.48-135.003 115.256-149.251 204.061l-0.211 1.592c-1.61 12.554-2.528 27.076-2.528 41.813s0.919 29.26 2.702 43.514l-0.173-1.7c15.147 98.773 83.925 183.381 176.853 217.643 44.373 16.341 84.309 20.864 133.888 15.147zM424.107 551.808c-14.293-7.851-20.736-21.419-17.493-36.779 1.579-7.467 4.139-10.624 30.891-37.632l29.141-29.483-27.477-27.691c-15.147-15.232-28.757-30.165-30.251-33.152-3.371-6.741-3.541-21.291-0.341-27.477 3.964-6.799 9.757-12.153 16.708-15.474l0.231-0.099c3.44-1.115 7.397-1.758 11.505-1.758 5.057 0 9.887 0.974 14.312 2.746l-0.26-0.092c2.987 1.493 17.92 15.104 33.152 30.251l27.691 27.477 29.483-29.141c27.008-26.752 30.165-29.312 37.632-30.891 2.329-0.576 5.002-0.907 7.752-0.907 5.48 0 10.653 1.313 15.222 3.641l-0.19-0.088c5.504 2.944 14.123 13.525 15.275 18.731 0.555 2.56 1.28 5.504 1.579 6.528 0.002 0.134 0.003 0.293 0.003 0.452 0 3.478-0.452 6.851-1.301 10.062l0.062-0.274c-1.621 7.723-3.968 10.581-30.933 37.845l-29.141 29.483 27.477 27.691c15.147 15.232 28.757 30.165 30.251 33.152 1.68 4.165 2.654 8.995 2.654 14.052 0 4.108-0.643 8.066-1.834 11.778l0.076-0.273c-3.42 7.182-8.774 12.975-15.392 16.841l-0.182 0.098c-6.187 3.2-20.736 3.029-27.477-0.341-2.987-1.493-17.92-15.104-33.195-30.293l-27.733-27.52-27.733 27.52c-15.275 15.189-30.208 28.8-33.195 30.293-6.229 3.115-21.888 3.541-26.965 0.725z" />
<glyph unicode="&#xe929;" glyph-name="circle-exclamation-mark" d="M478.165 787.499c-79.569-8.238-149.839-42.717-203.222-94.504l0.086 0.083c-64.199-62.169-104.050-149.15-104.050-245.44 0-37.96 6.194-74.474 17.625-108.585l-0.7 2.409c38.921-114.842 133.908-201.033 251.513-226.825l2.268-0.417c101.717-21.248 209.579 5.461 287.915 71.296 39.339 33.067 66.944 68.224 88.875 113.152 58.667 120.277 41.259 265.515-43.989 366.933-33.067 39.339-68.224 66.944-113.152 88.875-43.762 21.856-95.333 34.649-149.893 34.649-11.718 0-23.298-0.59-34.712-1.742l1.437 0.117zM548.693 722.603c27.051-3.115 60.885-13.568 87.765-27.093 78.845-40.448 135.13-115.254 149.379-204.104l0.21-1.592c1.61-12.554 2.528-27.076 2.528-41.813s-0.919-29.26-2.702-43.514l0.173 1.7c-14.459-90.397-70.688-165.174-147.899-204.922l-1.562-0.731c-35.315-18.432-77.129-29.245-121.468-29.245-1.097 0-2.192 0.007-3.285 0.020l0.167-0.002c-0.927-0.012-2.022-0.018-3.119-0.018-44.339 0-86.153 10.813-122.949 29.946l1.481-0.701c-78.774 40.48-135.003 115.256-149.251 204.061l-0.211 1.592c-1.61 12.554-2.528 27.076-2.528 41.813s0.919 29.26 2.702 43.514l-0.173-1.7c15.147 98.773 83.925 183.381 176.853 217.643 44.373 16.341 84.309 20.864 133.888 15.147zM502.912 606.805c-8.256-1.688-15.068-6.807-18.999-13.769l-0.073-0.14c-3.243-5.547-3.456-9.429-3.968-82.603-0.597-85.461-0.085-95.403 5.461-103.637 5.504-8.149 11.819-10.709 26.667-10.709 19.285 0 27.819 5.973 30.848 21.589 1.877 9.685 1.877 157.056 0 166.741-3.371 17.408-19.541 26.496-39.936 22.528zM502.912 350.805c-14.848-2.944-22.187-13.44-22.187-31.659 0-21.973 8.832-30.635 31.275-30.677 22.016-0.085 31.061 8.747 31.189 30.464 0.085 15.445-4.096 24.107-14.123 29.184-5.803 2.944-18.261 4.224-26.155 2.688z" />
<glyph unicode="&#xe92a;" glyph-name="circle-information" d="M478.165 787.499c-79.569-8.238-149.839-42.717-203.222-94.504l0.086 0.083c-64.199-62.169-104.050-149.15-104.050-245.44 0-37.96 6.194-74.474 17.625-108.585l-0.7 2.409c38.921-114.842 133.908-201.033 251.513-226.825l2.268-0.417c101.717-21.248 209.579 5.461 287.915 71.296 39.339 33.067 66.944 68.224 88.875 113.152 58.667 120.277 41.259 265.515-43.989 366.933-33.067 39.339-68.224 66.944-113.152 88.875-43.762 21.856-95.333 34.649-149.893 34.649-11.718 0-23.298-0.59-34.712-1.742l1.437 0.117zM548.693 722.603c27.051-3.115 60.885-13.568 87.765-27.093 78.845-40.448 135.13-115.254 149.379-204.104l0.21-1.592c1.61-12.554 2.528-27.076 2.528-41.813s-0.919-29.26-2.702-43.514l0.173 1.7c-14.459-90.397-70.688-165.174-147.899-204.922l-1.562-0.731c-35.315-18.432-77.129-29.245-121.468-29.245-1.097 0-2.192 0.007-3.285 0.020l0.167-0.002c-0.927-0.012-2.022-0.018-3.119-0.018-44.339 0-86.153 10.813-122.949 29.946l1.481-0.701c-78.774 40.48-135.003 115.256-149.251 204.061l-0.211 1.592c-1.61 12.554-2.528 27.076-2.528 41.813s0.919 29.26 2.702 43.514l-0.173-1.7c15.147 98.773 83.925 183.381 176.853 217.643 44.373 16.341 84.309 20.864 133.888 15.147zM502.912 606.805c-14.805-2.901-22.187-13.44-22.187-31.573 0-21.803 9.131-30.805 31.275-30.805 22.059 0 31.061 8.789 31.189 30.507 0.085 15.445-4.096 24.107-14.123 29.184-5.803 2.944-18.261 4.224-26.155 2.688zM499.968 499.371c-8.107-2.603-11.52-5.205-15.531-11.648l-4.011-6.443v-174.080l4.011-6.443c5.803-9.344 12.331-12.245 27.563-12.288 14.891-0.043 21.888 3.157 27.861 12.757 3.669 5.931 3.712 6.528 3.712 93.013s-0.043 87.083-3.712 93.013c-2.447 3.67-5.503 6.726-9.056 9.099l-0.118 0.074c-6.016 3.541-23.723 5.248-30.72 2.944z" />
<glyph unicode="&#xe92b;" glyph-name="circle-minus" d="M478.165 787.499c-79.569-8.238-149.839-42.717-203.222-94.504l0.086 0.083c-64.199-62.169-104.050-149.15-104.050-245.44 0-37.96 6.194-74.474 17.625-108.585l-0.7 2.409c38.921-114.842 133.908-201.033 251.513-226.825l2.268-0.417c101.717-21.248 209.579 5.461 287.915 71.296 39.339 33.067 66.944 68.224 88.875 113.152 58.667 120.277 41.259 265.515-43.989 366.933-33.067 39.339-68.224 66.944-113.152 88.875-43.762 21.856-95.333 34.649-149.893 34.649-11.718 0-23.298-0.59-34.712-1.742l1.437 0.117zM548.693 722.603c27.051-3.115 60.885-13.568 87.765-27.093 78.845-40.448 135.13-115.254 149.379-204.104l0.21-1.592c1.61-12.554 2.528-27.076 2.528-41.813s-0.919-29.26-2.702-43.514l0.173 1.7c-14.459-90.397-70.688-165.174-147.899-204.922l-1.562-0.731c-35.315-18.432-77.129-29.245-121.468-29.245-1.097 0-2.192 0.007-3.285 0.020l0.167-0.002c-0.927-0.012-2.022-0.018-3.119-0.018-44.339 0-86.153 10.813-122.949 29.946l1.481-0.701c-78.774 40.48-135.003 115.256-149.251 204.061l-0.211 1.592c-1.61 12.554-2.528 27.076-2.528 41.813s0.919 29.26 2.702 43.514l-0.173-1.7c15.147 98.773 83.925 183.381 176.853 217.643 44.373 16.341 84.309 20.864 133.888 15.147zM401.92 479.616c-1.586-0.517-3.72-1.077-5.89-1.538l-0.468-0.083c-4.23-1.51-7.866-3.732-10.947-6.55l0.024 0.022c-17.92-15.701-13.483-42.368 8.747-52.651 6.443-2.987 13.397-3.157 118.613-3.157s112.171 0.171 118.613 3.157c12.587 5.845 19.627 16.256 19.627 29.184 0.012 0.309 0.019 0.672 0.019 1.036 0 7.818-3.152 14.899-8.255 20.043l0.002-0.002c-10.453 11.051-3.669 10.453-126.592 10.837-12.658 0.108-27.627 0.169-42.61 0.169-24.922 0-49.805-0.17-74.647-0.508l3.764 0.040z" />
<glyph unicode="&#xe92c;" glyph-name="circle-plus" d="M478.165 787.499c-79.569-8.238-149.839-42.717-203.222-94.504l0.086 0.083c-64.199-62.169-104.050-149.15-104.050-245.44 0-37.96 6.194-74.474 17.625-108.585l-0.7 2.409c38.921-114.842 133.908-201.033 251.513-226.825l2.268-0.417c101.717-21.248 209.579 5.461 287.915 71.296 39.339 33.067 66.944 68.224 88.875 113.152 58.667 120.277 41.259 265.515-43.989 366.933-33.067 39.339-68.224 66.944-113.152 88.875-43.762 21.856-95.333 34.649-149.893 34.649-11.718 0-23.298-0.59-34.712-1.742l1.437 0.117zM548.693 722.603c27.051-3.115 60.885-13.568 87.765-27.093 78.845-40.448 135.13-115.254 149.379-204.104l0.21-1.592c1.61-12.554 2.528-27.076 2.528-41.813s-0.919-29.26-2.702-43.514l0.173 1.7c-14.459-90.397-70.688-165.174-147.899-204.922l-1.562-0.731c-35.315-18.432-77.129-29.245-121.468-29.245-1.097 0-2.192 0.007-3.285 0.020l0.167-0.002c-0.927-0.012-2.022-0.018-3.119-0.018-44.339 0-86.153 10.813-122.949 29.946l1.481-0.701c-78.774 40.48-135.003 115.256-149.251 204.061l-0.211 1.592c-1.61 12.554-2.528 27.076-2.528 41.813s0.919 29.26 2.702 43.514l-0.173-1.7c15.147 98.773 83.925 183.381 176.853 217.643 44.373 16.341 84.309 20.864 133.888 15.147zM500.053 584.32c-5.504-2.176-13.184-9.515-16.811-16-2.347-4.267-2.901-11.861-3.371-46.379l-0.555-41.259-41.259-0.555c-34.517-0.469-42.112-1.024-46.379-3.371-24.832-13.781-23.893-46.123 1.707-57.941 6.016-2.773 11.52-3.157 46.379-3.2l39.552-0.043 0.555-41.387c0.597-45.013 0.896-46.592 11.051-56.192 5.142-5.101 12.223-8.254 20.041-8.254 0.364 0 0.727 0.007 1.088 0.020l-0.052-0.002c0.309-0.012 0.672-0.019 1.036-0.019 7.818 0 14.899 3.152 20.043 8.255l-0.002-0.002c10.155 9.6 10.453 11.179 11.051 56.192l0.555 41.387 39.552 0.043c34.859 0.043 40.363 0.427 46.379 3.2 12.587 5.845 19.627 16.256 19.627 29.184 0.012 0.309 0.019 0.672 0.019 1.036 0 7.818-3.152 14.899-8.255 20.043l0.002-0.002c-9.6 10.112-11.179 10.453-56.064 11.051l-41.259 0.555-0.555 41.259c-0.469 34.517-1.024 42.112-3.371 46.379-3.755 6.784-11.392 13.867-17.365 16.085-3.451 1.060-7.418 1.67-11.527 1.67-4.214 0-8.278-0.642-12.099-1.833l0.288 0.077z" />
<glyph unicode="&#xe92d;" glyph-name="circle-question-mark" d="M478.165 787.499c-79.569-8.238-149.839-42.717-203.222-94.504l0.086 0.083c-64.199-62.169-104.050-149.15-104.050-245.44 0-37.96 6.194-74.474 17.625-108.585l-0.7 2.409c38.921-114.842 133.908-201.033 251.513-226.825l2.268-0.417c101.717-21.248 209.579 5.461 287.915 71.296 39.339 33.067 66.944 68.224 88.875 113.152 58.667 120.277 41.259 265.515-43.989 366.933-33.067 39.339-68.224 66.944-113.152 88.875-43.762 21.856-95.333 34.649-149.893 34.649-11.718 0-23.298-0.59-34.712-1.742l1.437 0.117zM548.693 722.603c27.051-3.115 60.885-13.568 87.765-27.093 78.845-40.448 135.13-115.254 149.379-204.104l0.21-1.592c1.61-12.554 2.528-27.076 2.528-41.813s-0.919-29.26-2.702-43.514l0.173 1.7c-14.459-90.397-70.688-165.174-147.899-204.922l-1.562-0.731c-35.315-18.432-77.129-29.245-121.468-29.245-1.097 0-2.192 0.007-3.285 0.020l0.167-0.002c-0.927-0.012-2.022-0.018-3.119-0.018-44.339 0-86.153 10.813-122.949 29.946l1.481-0.701c-78.774 40.48-135.003 115.256-149.251 204.061l-0.211 1.592c-1.61 12.554-2.528 27.076-2.528 41.813s0.919 29.26 2.702 43.514l-0.173-1.7c15.147 98.773 83.925 183.381 176.853 217.643 44.373 16.341 84.309 20.864 133.888 15.147zM480.213 635.861c-22.912-6.187-47.36-20.864-61.995-37.163-17.897-19.637-29.849-44.974-32.847-72.99l-0.049-0.568c-2.176-19.115-0.299-29.184 6.784-36.608 12.075-12.629 43.52-10.069 50.944 4.139 1.621 3.115 3.968 13.184 5.163 22.315 2.645 20.523 9.131 33.835 21.845 44.971 12.416 10.88 24.021 15.019 41.941 15.019 11.051 0 16.811-0.896 24.235-3.84 26.155-10.368 43.947-41.728 38.912-68.608-5.845-31.275-27.989-50.987-61.184-54.4-18.091-1.877-24.107-4.608-29.525-13.312-3.712-5.931-4.011-8.277-4.011-29.483s0.299-23.552 4.011-29.483c5.803-9.344 12.331-12.245 27.563-12.288 10.24-0.043 13.995 0.725 18.773 3.669 6.4 4.011 11.947 11.904 11.947 17.067 0 2.347 2.901 4.181 11.52 7.253 18.87 6.942 34.963 17.476 48.155 30.874l0.016 0.016c20.053 20.053 30.592 40.576 35.541 69.205 6.784 39.168-6.869 81.408-35.456 110.037-16.512 16.512-30.507 25.003-53.803 32.683-15.531 5.12-52.181 5.931-68.48 1.493zM499.968 318.464c-14.080-4.565-19.243-12.629-19.243-30.037 0-18.859 7.253-28.672 23.381-31.701 9.685-1.792 22.101 0.299 28.16 4.821 8.107 6.059 11.008 13.227 10.923 27.008-0.085 14.336-3.499 21.675-12.501 26.965-6.016 3.541-23.723 5.248-30.72 2.944z" />
<glyph unicode="&#xe92e;" glyph-name="clock" d="M478.165 787.499c-79.569-8.238-149.839-42.717-203.222-94.504l0.086 0.083c-64.199-62.169-104.050-149.15-104.050-245.44 0-37.96 6.194-74.474 17.625-108.585l-0.7 2.409c38.921-114.842 133.908-201.033 251.513-226.825l2.268-0.417c101.717-21.248 209.579 5.461 287.915 71.296 39.339 33.067 66.944 68.224 88.875 113.152 58.667 120.277 41.259 265.515-43.989 366.933-33.067 39.339-68.224 66.944-113.152 88.875-43.762 21.856-95.333 34.649-149.893 34.649-11.718 0-23.298-0.59-34.712-1.742l1.437 0.117zM548.693 722.603c27.051-3.115 60.885-13.568 87.765-27.093 78.845-40.448 135.13-115.254 149.379-204.104l0.21-1.592c1.61-12.554 2.528-27.076 2.528-41.813s-0.919-29.26-2.702-43.514l0.173 1.7c-14.459-90.397-70.688-165.174-147.899-204.922l-1.562-0.731c-35.315-18.432-77.129-29.245-121.468-29.245-1.097 0-2.192 0.007-3.285 0.020l0.167-0.002c-0.927-0.012-2.022-0.018-3.119-0.018-44.339 0-86.153 10.813-122.949 29.946l1.481-0.701c-78.774 40.48-135.003 115.256-149.251 204.061l-0.211 1.592c-1.61 12.554-2.528 27.076-2.528 41.813s0.919 29.26 2.702 43.514l-0.173-1.7c15.147 98.773 83.925 183.381 176.853 217.643 44.373 16.341 84.309 20.864 133.888 15.147zM499.968 659.797c-8.107-2.603-11.52-5.205-15.531-11.648l-4.011-6.443v-101.547c0-91.691 0.256-102.059 2.859-106.667 1.579-2.816 24.619-26.752 51.2-53.163 53.248-52.949 54.827-54.101 69.888-50.048 9.429 2.56 22.784 15.915 25.344 25.344 3.968 14.805 2.304 17.237-43.563 63.36l-41.557 41.813-0.512 90.453c-0.512 89.557-0.555 90.496-4.224 96.427-2.447 3.67-5.503 6.726-9.056 9.099l-0.118 0.074c-6.016 3.541-23.723 5.248-30.72 2.944z" />
<glyph unicode="&#xe92f;" glyph-name="combine" d="M242.816 763.861c-22.016-7.509-41.045-27.221-47.403-48.939-2.304-7.936-2.56-29.653-2.176-174.336l0.469-165.291 6.4-12.971c10.837-21.931 30.592-36.907 53.632-40.661 5.461-0.896 37.035-1.664 70.101-1.664h60.16v-60.16c0-33.109 0.768-64.64 1.664-70.101 3.755-23.040 18.731-42.795 40.661-53.632l12.971-6.4 165.291-0.469c144.683-0.384 166.4-0.128 174.336 2.176 16.213 4.736 32.128 17.152 42.155 32.939 10.496 16.597 10.155 9.728 9.685 191.061l-0.469 165.291-6.4 12.971c-10.243 21.169-29.795 36.441-53.19 40.596l-0.442 0.065c-5.461 0.896-36.992 1.664-70.101 1.664h-60.16v60.16c0 33.067-0.768 64.64-1.664 70.101-4.22 23.837-19.492 43.389-40.226 53.442l-0.436 0.19-12.971 6.4-166.485 0.299c-155.947 0.341-167.040 0.128-175.403-2.731zM572.757 700.416c3.029-3.371 3.285-7.381 3.712-64l0.512-60.416h-61.184c-36.821 0-65.195-0.725-71.253-1.877-29.013-5.333-53.333-29.653-58.667-58.667-1.152-6.059-1.877-34.432-1.877-71.253v-61.184l-60.416 0.512c-56.619 0.427-60.629 0.683-64 3.712l-3.584 3.243v153.344c0 151.083 0.043 153.387 3.413 156.757s5.675 3.413 156.757 3.413h153.344l3.243-3.584zM576.469 453.973c0.469-62.208 0.085-65.707-7.851-68.992-3.115-1.28-23.253-1.749-62.592-1.451l-58.027 0.469-0.469 58.283c-0.256 35.797 0.213 60.032 1.28 62.763 1.104 2.636 3.043 4.741 5.481 6.027l0.065 0.031c2.176 0.853 30.165 1.408 62.763 1.237l58.88-0.341 0.469-58.027zM764.416 508.757l3.584-3.243v-153.344c0-151.083-0.043-153.387-3.413-156.757s-5.675-3.413-156.757-3.413h-153.344l-3.243 3.584c-3.029 3.371-3.285 7.381-3.712 64l-0.512 60.416h61.184c36.821 0 65.195 0.725 71.253 1.877 29.629 6.082 52.585 29.038 58.584 58.184l0.083 0.483c1.152 6.059 1.877 34.432 1.877 71.253v61.184l60.416-0.512c56.619-0.427 60.629-0.683 64-3.712z" />
<glyph unicode="&#xe930;" glyph-name="community" d="M301.483 764.459c-31.531-7.637-61.141-32.128-76.245-63.019-12.459-25.472-11.904-12.757-11.904-274.517v-234.581l-22.613-0.597c-25.899-0.683-30.805-2.517-37.12-13.781-3.2-5.675-3.669-8.747-3.157-20.096 0.683-15.403 3.712-21.077 13.867-26.112 5.931-2.987 21.845-3.115 347.179-3.413 337.92-0.341 341.035-0.299 347.691 3.072 10.709 5.419 13.653 10.923 14.379 26.453 0.512 11.349 0.043 14.421-3.157 20.096-6.315 11.264-11.221 13.099-37.12 13.781l-22.613 0.597v79.957c0 52.693-0.64 83.029-1.92 89.003-3.056 12.504-8.461 23.443-15.762 32.835l0.146-0.195c-5.12 6.485-121.941 98.56-135.595 106.88l-7.168 4.352-0.085 89.6c-0.085 98.859-0.384 102.229-10.709 121.856-7.211 13.824-26.581 33.237-39.68 39.851-22.016 11.093-15.744 10.667-158.592 10.539-105.899-0.128-131.669-0.597-139.819-2.56zM572.843 697.941c4.145-3.577 7.615-7.795 10.289-12.524l0.122-0.234c3.84-7.509 3.84-7.637 3.797-93.739l-0.085-86.272-7.168-4.352c-11.648-7.083-129.963-99.797-135.040-105.856-7.333-9.508-12.917-20.776-16.034-33.030l-0.137-0.634c-1.28-5.973-1.92-36.309-1.92-89.173v-80.128h-150.187v228.395c0 157.909 0.555 231.467 1.877 238.464 2.196 14.884 10.472 27.494 22.176 35.425l0.181 0.116c13.056 9.6 10.581 9.429 143.275 9.088l122.325-0.341 6.528-5.205zM354.816 635.605c-9.6-5.717-12.629-12.245-12.629-27.179 0-14.976 3.499-22.571 12.843-28.117 8.619-5.035 29.184-4.907 37.504 0.256 9.216 5.76 12.331 12.501 12.416 26.965 0.085 13.824-2.816 20.864-11.264 27.179-7.296 5.419-30.336 5.973-38.869 0.896zM472.192 635.563c-11.136-5.888-16.128-23.808-11.392-40.875 3.499-12.629 16.981-19.797 34.261-18.219 12.203 1.109 18.944 4.949 23.765 13.568 3.2 5.675 3.669 8.747 3.157 20.096-0.683 15.232-3.712 21.035-13.525 26.027-8.363 4.267-27.648 3.968-36.267-0.597zM354.816 507.605c-9.6-5.717-12.629-12.245-12.629-27.179 0-14.976 3.499-22.571 12.843-28.117 8.619-5.035 29.184-4.907 37.504 0.256 9.216 5.76 12.331 12.501 12.416 26.965 0.085 13.824-2.816 20.864-11.264 27.179-7.296 5.419-30.336 5.973-38.869 0.896zM684.032 400.341c53.291-41.429 61.44-48.341 62.379-53.12 0.597-2.987 1.109-39.168 1.109-80.341v-74.88h-97.28l-0.043 63.573c-0.043 58.795-0.256 64.128-3.285 70.741-4.437 9.771-13.227 14.165-28.245 14.165s-23.808-4.395-28.245-14.165c-3.029-6.613-3.243-11.947-3.285-70.741l-0.043-63.573h-97.28v74.88c0 41.173 0.512 77.355 1.109 80.341 0.939 4.779 9.088 11.691 62.379 53.12 41.216 32.043 62.635 47.659 65.365 47.659s24.149-15.616 65.365-47.659z" />
<glyph unicode="&#xe931;" glyph-name="component" d="M491.52 754.859c-8.32-3.157-14.507-8.661-54.784-48.939-52.224-52.267-53.632-54.229-53.547-76.16 0.085-22.784 1.195-24.363 53.376-76.416 51.797-51.627 53.547-52.907 75.435-52.907s23.637 1.28 75.435 52.907c52.267 52.096 53.376 53.675 53.333 76.416 0 22.059-1.365 23.979-53.504 76.117-41.472 41.515-46.251 45.739-55.296 49.067-5.982 2.233-12.893 3.526-20.107 3.526-7.301 0-14.293-1.324-20.749-3.745l0.408 0.134zM543.147 660.053l30.293-30.336-61.44-61.355-61.44 61.355 30.293 30.336c16.64 16.64 30.677 30.293 31.147 30.293s14.507-13.653 31.147-30.293zM314.539 575.36c-11.691-3.84-21.419-12.245-64.683-55.936-36.992-37.419-41.472-42.539-44.8-51.456-2.269-5.934-3.583-12.798-3.583-19.968s1.314-14.034 3.715-20.363l-0.131 0.395c3.328-9.045 7.552-13.824 49.067-55.296 52.139-52.139 54.059-53.504 76.117-53.504 22.741-0.043 24.32 1.067 76.416 53.333 51.627 51.797 52.907 53.547 52.907 75.435s-1.28 23.637-52.907 75.435c-50.219 50.347-53.248 52.565-73.856 53.632-1.118 0.076-2.423 0.119-3.739 0.119-5.16 0-10.164-0.666-14.931-1.917l0.409 0.091zM678.4 575.403c-13.056-4.309-17.323-7.936-61.781-52.608-50.816-51.072-52.309-53.163-52.309-74.795 0-21.675 1.408-23.68 53.035-75.435 52.096-52.267 53.675-53.376 76.416-53.333 22.059 0 23.979 1.365 76.117 53.504 41.515 41.472 45.739 46.251 49.067 55.296 2.269 5.934 3.583 12.798 3.583 19.968s-1.314 14.034-3.715 20.363l0.131-0.395c-3.328 9.045-7.552 13.824-49.067 55.296-33.792 33.792-47.531 46.421-53.675 49.323-10.112 4.736-27.989 6.101-37.803 2.816zM360.96 417.28l-30.677-30.72-61.44 61.44 61.355 61.44 61.44-61.44-30.677-30.72zM724.48 417.28l-30.677-30.72-61.44 61.44 61.355 61.44 61.44-61.44-30.677-30.72zM500.608 395.093c-4.87-1.095-9.142-2.591-13.173-4.512l0.373 0.16c-3.115-1.579-26.197-23.253-51.243-48.213-52.224-51.925-53.291-53.504-53.376-76.288-0.085-21.931 1.323-23.893 53.547-76.117 41.472-41.515 46.251-45.739 55.296-49.067 5.931-2.219 13.867-3.669 19.968-3.669s14.037 1.451 19.968 3.669c9.045 3.328 13.824 7.552 55.296 49.067 52.139 52.139 53.504 54.059 53.504 76.117 0.043 22.741-1.067 24.32-53.333 76.416-33.792 33.707-47.573 46.293-53.248 48.811-6.933 2.812-14.976 4.444-23.399 4.444-3.594 0-7.12-0.297-10.552-0.868l0.372 0.051zM543.147 296.533l30.293-30.336-61.44-61.355-61.44 61.355 30.293 30.336c16.64 16.64 30.677 30.293 31.147 30.293s14.507-13.653 31.147-30.293z" />
<glyph unicode="&#xe932;" glyph-name="connected-arrow" d="M698.496 768.768c-12.672-2.731-26.155-17.707-27.349-30.421-1.152-11.861 1.963-16.64 28.288-43.307l23.168-23.467h-278.229l-2.901 8.96c-9.728 30.336-34.773 58.752-65.152 73.899-18.56 9.259-33.664 12.672-56.32 12.672s-37.76-3.413-56.32-12.672c-25.423-12.586-45.526-32.689-57.782-57.377l-0.33-0.735c-9.259-18.56-12.672-33.664-12.672-56.32s3.413-37.76 12.672-56.32c12.586-25.423 32.689-45.526 57.377-57.782l0.735-0.33c18.56-9.259 33.664-12.672 56.32-12.672s37.76 3.413 56.32 12.672c30.379 15.147 55.424 43.563 65.152 73.899l2.901 8.96h278.229l-23.168-23.467c-12.757-12.885-24.491-26.069-26.112-29.312-6.485-12.715-0.597-28.288 14.891-39.509 3.789-3.143 8.703-5.050 14.061-5.050 0.562 0 1.119 0.021 1.671 0.062l-0.074-0.004c0.342-0.016 0.743-0.025 1.146-0.025 4.316 0 8.386 1.050 11.969 2.91l-0.145-0.068c2.304 1.536 25.728 24.107 52.011 50.133s49.536 48.213 51.627 49.323c5.675 2.901 12.373 17.323 12.373 26.581s-6.699 23.68-12.373 26.624c-2.091 1.067-26.112 24.107-53.333 51.115-35.712 35.456-50.944 49.451-54.613 50.261l-6.827 1.579c-0.234 0.008-0.508 0.012-0.784 0.012-2.284 0-4.498-0.3-6.605-0.863l0.178 0.041zM345.643 698.24c13.355-6.101 26.539-19.2 32.683-32.469 4.181-8.96 4.821-12.501 4.821-25.771 0-13.227-0.64-16.768-4.779-25.6-7.144-14.239-18.393-25.53-32.185-32.535l-0.412-0.19c-8.96-4.181-12.501-4.821-25.771-4.821-13.227 0-16.768 0.64-25.6 4.779-14.239 7.144-25.53 18.393-32.535 32.185l-0.19 0.412c-4.181 8.96-4.821 12.501-4.821 25.771 0 13.227 0.64 16.768 4.779 25.6 7.979 17.109 22.613 29.909 41.301 36.096 10.965 3.669 30.592 2.048 42.709-3.456zM318.293 385.579l-6.827-1.579c-3.669-0.811-18.944-14.891-54.613-50.261-27.221-27.008-51.243-50.048-53.333-51.115-5.504-2.859-12.672-17.92-12.672-26.624 0-8.747 7.168-23.765 12.672-26.581 2.091-1.109 25.344-23.296 51.627-49.323s49.707-48.597 52.011-50.133c3.439-1.791 7.509-2.841 11.825-2.841 0.403 0 0.804 0.009 1.203 0.027l-0.057-0.002c21.461 0 39.68 26.581 30.549 44.501-1.621 3.243-13.397 16.427-26.112 29.312l-23.211 23.467 274.645-0.853 0.853-33.408 0.853-33.451 5.163-8.32c3.2-5.163 8.363-10.325 13.525-13.525l8.363-5.163h198.485l8.363 5.163c5.163 3.2 10.325 8.363 13.525 13.525l5.163 8.363v198.485l-5.163 8.363c-3.532 5.471-8.054 9.994-13.351 13.42l-0.174 0.106-8.363 5.163h-198.485l-8.363-5.163c-5.471-3.532-9.994-8.054-13.42-13.351l-0.106-0.174-5.163-8.32-0.853-33.451-0.853-33.408-274.517-0.853 23.083 23.467c12.672 12.885 24.448 26.069 26.069 29.312 6.315 12.245 0.939 27.605-13.568 38.656-5.547 4.224-14.976 7.509-18.773 6.571zM768 256v-64h-128v128h128v-64z" />
<glyph unicode="&#xe933;" glyph-name="contrast" d="M478.165 787.499c-79.569-8.238-149.839-42.717-203.222-94.504l0.086 0.083c-64.199-62.169-104.050-149.15-104.050-245.44 0-37.96 6.194-74.474 17.625-108.585l-0.7 2.409c38.921-114.842 133.908-201.033 251.513-226.825l2.268-0.417c101.717-21.248 209.579 5.461 287.915 71.296 39.339 33.067 66.944 68.224 88.875 113.152 58.667 120.277 41.259 265.515-43.989 366.933-33.067 39.339-68.224 66.944-113.152 88.875-43.762 21.856-95.333 34.649-149.893 34.649-11.718 0-23.298-0.59-34.712-1.742l1.437 0.117zM548.693 722.603c27.051-3.115 60.885-13.568 87.765-27.093 78.845-40.448 135.13-115.254 149.379-204.104l0.21-1.592c1.61-12.554 2.528-27.076 2.528-41.813s-0.919-29.26-2.702-43.514l0.173 1.7c-14.459-90.397-70.688-165.174-147.899-204.922l-1.562-0.731c-35.315-18.432-77.129-29.245-121.468-29.245-1.097 0-2.192 0.007-3.285 0.020l0.167-0.002c-0.927-0.012-2.022-0.018-3.119-0.018-44.339 0-86.153 10.813-122.949 29.946l1.481-0.701c-78.774 40.48-135.003 115.256-149.251 204.061l-0.211 1.592c-1.61 12.554-2.528 27.076-2.528 41.813s0.919 29.26 2.702 43.514l-0.173-1.7c15.147 98.773 83.925 183.381 176.853 217.643 44.373 16.341 84.309 20.864 133.888 15.147zM535.936 666.368c-8.187-3.755-14.785-9.79-19.135-17.291l-0.108-0.202-3.84-7.168v-387.413l3.755-7.040c4.317-8.267 11.449-14.569 20.097-17.711l0.255-0.081c18.389-6.059 67.328 10.411 102.827 34.688 16.683 11.392 44.672 39.381 56.064 56.064 24.862 35.705 39.723 79.991 39.723 127.748 0 0.014 0 0.027 0 0.041v-0.002c0.001 0.234 0.001 0.511 0.001 0.788 0 85.845-48.68 160.32-119.94 197.327l-1.235 0.583c-30.933 15.787-66.56 24.747-78.464 19.669z" />
<glyph unicode="&#xe934;" glyph-name="copy" d="M242.816 763.861c-22.016-7.509-41.045-27.221-47.403-48.939-2.304-7.936-2.56-29.653-2.176-174.336l0.469-165.291 6.4-12.971c10.837-21.931 30.592-36.907 53.632-40.661 5.461-0.896 37.035-1.664 70.101-1.664h60.16v-60.16c0-33.109 0.768-64.64 1.664-70.101 3.755-23.040 18.731-42.795 40.661-53.632l12.971-6.4 165.291-0.469c144.683-0.384 166.4-0.128 174.336 2.176 16.213 4.736 32.128 17.152 42.155 32.939 10.496 16.597 10.155 9.728 9.685 191.061l-0.469 165.291-6.4 12.971c-10.243 21.169-29.795 36.441-53.19 40.596l-0.442 0.065c-5.461 0.896-36.992 1.664-70.101 1.664h-60.16v60.16c0 33.067-0.768 64.64-1.664 70.101-4.22 23.837-19.492 43.389-40.226 53.442l-0.436 0.19-12.971 6.4-166.485 0.299c-155.947 0.341-167.040 0.128-175.403-2.731zM572.757 700.416c3.029-3.371 3.285-7.381 3.712-64l0.512-60.416h-61.184c-36.821 0-65.195-0.725-71.253-1.877-29.013-5.333-53.333-29.653-58.667-58.667-1.152-6.059-1.877-34.432-1.877-71.253v-61.184l-60.416 0.512c-56.619 0.427-60.629 0.683-64 3.712l-3.584 3.243v153.344c0 151.083 0.043 153.387 3.413 156.757s5.675 3.413 156.757 3.413h153.344l3.243-3.584zM764.416 508.757l3.584-3.243v-153.344c0-151.083-0.043-153.387-3.413-156.757s-5.675-3.413-156.757-3.413h-153.344l-3.243 3.584c-3.115 3.456-3.243 8.832-3.712 154.283-0.299 97.579 0.171 152.277 1.28 155.179 1.104 2.636 3.043 4.741 5.481 6.027l0.065 0.031c2.304 0.896 66.389 1.408 155.179 1.237 146.133-0.341 151.381-0.469 154.88-3.584z" />
<glyph unicode="&#xe935;" glyph-name="coupon" d="M220.885 767.488c-8.576-1.28-11.349-2.475-16.981-7.467-12.459-10.923-11.861-5.504-12.416-108.757-0.512-101.931-0.128-107.349 8.576-117.248 7.211-8.235 9.557-9.173 29.227-11.904 21.248-2.987 34.517-9.045 46.891-21.419 26.411-26.411 29.44-67.584 7.168-97.195-12.857-17.061-32.527-28.396-54.891-29.939l-0.234-0.013c-20.992-1.877-31.829-10.112-35.328-26.837-1.28-6.229-1.749-38.528-1.408-101.973 0.469-83.541 0.811-93.355 3.413-98.133 3.755-6.827 13.781-15.616 19.755-17.28 6.101-1.707 588.587-1.707 594.688 0 5.973 1.664 16 10.453 19.755 17.28 2.603 4.779 2.944 14.592 3.413 98.133 0.341 63.445-0.128 95.744-1.408 101.973-3.499 16.725-14.336 24.96-35.328 26.837-54.571 4.864-85.973 59.904-61.781 108.331 11.435 22.912 31.573 36.181 61.141 40.277 20.139 2.816 27.307 6.869 33.451 18.987 3.285 6.443 3.413 10.069 3.413 103.125 0 53.035-0.597 98.517-1.323 101.077-1.451 5.291-10.112 15.744-15.531 18.901-2.773 1.579-71.723 2.261-297.301 2.901-58.459 0.293-127.653 0.46-196.886 0.46-35.172 0-70.334-0.043-105.486-0.129l5.412 0.010zM768 643.499v-60.544l-7.253-1.963c-25.472-6.827-53.12-25.899-70.357-48.427-17.803-22.574-28.556-51.43-28.556-82.798 0-0.622 0.004-1.242 0.013-1.862l-0.001 0.094c0-31.915 9.344-59.477 28.715-84.779 16.213-21.205 43.819-40.533 68.053-47.573l9.387-2.731v-120.917h-512v120.917l9.387 2.731c24.235 7.040 51.84 26.368 68.053 47.573 17.907 22.613 28.726 51.551 28.726 83.015 0 0.62-0.004 1.239-0.013 1.857l0.001-0.094c0 31.829-9.344 59.477-28.544 84.565-17.237 22.528-44.885 41.6-70.357 48.427l-7.253 1.963v121.045h512v-60.501zM430.592 540.032c-19.371-9.6-19.285-46.677 0.128-56.107 6.997-3.371 10.027-3.499 81.28-3.499s74.283 0.128 81.28 3.499c9.472 4.608 14.293 14.080 14.293 28.075s-4.821 23.467-14.293 28.075c-6.997 3.371-10.027 3.499-81.408 3.499-71.595 0-74.368-0.128-81.28-3.541zM430.592 412.032c-19.371-9.6-19.285-46.677 0.128-56.107 6.997-3.371 10.027-3.499 81.28-3.499s74.283 0.128 81.28 3.499c9.472 4.608 14.293 14.080 14.293 28.075s-4.821 23.467-14.293 28.075c-6.997 3.371-10.027 3.499-81.408 3.499-71.595 0-74.368-0.128-81.28-3.541z" />
<glyph unicode="&#xe936;" glyph-name="cpu" d="M371.968 787.797c-8.064-2.603-11.52-5.205-15.445-11.52-3.371-5.461-3.968-9.131-4.608-29.013l-0.768-22.784h-27.52c-37.12-0.043-49.067-3.883-66.645-21.461s-21.419-29.525-21.461-66.603v-27.52l-22.912-0.853c-25.643-0.981-32.512-3.456-38.101-13.867-4.011-7.381-4.011-28.971 0-36.352 5.589-10.411 12.459-12.885 38.101-13.867l22.912-0.853v-62.208l-22.912-0.853c-25.643-0.981-32.512-3.456-38.101-13.867-4.011-7.381-4.011-28.971 0-36.352 5.589-10.411 12.459-12.885 38.101-13.867l22.912-0.853v-62.208l-22.912-0.853c-25.643-0.981-32.512-3.456-38.101-13.867-4.011-7.381-4.011-28.971 0-36.352 5.589-10.411 12.459-12.885 38.101-13.867l22.912-0.853v-27.52c0.043-37.077 3.883-49.024 21.461-66.603s29.525-21.419 66.645-21.461h27.52l0.768-22.784c0.853-25.515 3.413-32.555 13.909-38.229 7.979-4.309 29.184-4.096 36.651 0.427 10.539 6.357 12.587 12.032 13.568 37.675l0.853 22.912h62.251l0.768-22.784c0.853-25.515 3.413-32.555 13.909-38.229 7.979-4.309 29.184-4.096 36.651 0.427 10.539 6.357 12.587 12.032 13.568 37.675l0.853 22.912h62.251l0.768-22.784c0.853-25.515 3.413-32.555 13.909-38.229 7.979-4.309 29.184-4.096 36.651 0.427 10.539 6.357 12.587 12.032 13.568 37.675l0.853 22.912h27.52c37.077 0.043 49.024 3.883 66.603 21.461s21.419 29.525 21.461 66.645v27.52l22.784 0.768c25.515 0.853 31.403 2.987 37.803 13.611 4.992 8.32 4.821 28.971-0.299 37.248-6.571 10.539-12.032 12.459-37.589 13.312l-22.699 0.768v62.293l22.699 0.768c25.557 0.853 31.019 2.773 37.589 13.312 2.944 4.736 3.712 8.576 3.712 18.773s-0.768 14.037-3.712 18.773c-6.571 10.539-12.032 12.459-37.589 13.312l-22.699 0.768v62.293l22.699 0.768c25.557 0.853 31.019 2.773 37.589 13.312 5.333 8.533 5.333 29.013 0 37.547-6.571 10.539-12.032 12.459-37.589 13.312l-22.699 0.768v27.52c-0.043 37.12-3.883 49.067-21.461 66.645s-29.525 21.419-66.603 21.461h-27.52l-0.853 22.912c-0.981 25.643-3.029 31.317-13.568 37.675-7.467 4.523-28.672 4.736-36.651 0.427-10.496-5.675-13.056-12.715-13.909-38.229l-0.768-22.784h-62.251l-0.853 22.827c-0.981 25.685-2.859 30.976-13.269 37.461-7.723 4.821-28.629 5.248-36.949 0.725-10.496-5.675-13.056-12.715-13.909-38.229l-0.768-22.784h-62.251l-0.853 22.912c-0.981 25.515-3.072 31.403-13.355 37.461-6.016 3.541-23.723 5.248-30.72 2.944zM721.92 657.92c3.371-3.371 3.413-5.675 3.413-209.92s-0.043-206.549-3.413-209.92c-3.371-3.371-5.675-3.413-209.92-3.413s-206.549 0.043-209.92 3.413c-3.371 3.371-3.413 5.675-3.413 209.92s0.043 206.549 3.413 209.92c3.371 3.371 5.675 3.413 209.92 3.413s206.549-0.043 209.92-3.413zM377.301 593.493c-3.694-2.032-6.81-4.644-9.342-7.751l-0.045-0.057c-3.499-4.779-3.541-5.973-3.541-137.685s0.043-132.907 3.541-137.685c2.577-3.164 5.693-5.777 9.225-7.726l0.161-0.082c5.419-2.773 15.403-2.987 134.699-2.987s129.28 0.213 134.699 2.987c3.694 2.032 6.81 4.644 9.342 7.751l0.045 0.057c3.499 4.779 3.541 5.973 3.541 137.685s-0.043 132.907-3.541 137.685c-2.577 3.164-5.693 5.777-9.225 7.726l-0.161 0.082c-5.419 2.773-15.403 2.987-134.699 2.987s-129.28-0.213-134.699-2.987zM597.333 448v-85.333h-170.667v170.667h170.667v-85.333z" />
<glyph unicode="&#xe937;" glyph-name="credit-card" d="M216.149 764.459c-41.088-9.984-77.184-47.872-85.547-89.813-3.925-19.797-3.925-433.493 0-453.291 8.448-42.368 44.587-80.043 86.315-89.856 16.512-3.925 573.653-3.925 590.165 0 41.728 9.813 77.867 47.488 86.315 89.856 3.925 19.797 3.925 433.493 0 453.291-8.448 42.368-44.587 80.043-86.315 89.856-15.915 3.755-575.403 3.712-590.933-0.043zM800.768 699.179c9.472-4.651 20.864-15.573 25.301-24.277 4.992-9.813 6.955-26.027 6.443-52.821l-0.512-24.747h-640l-0.512 24.747c-0.853 42.965 4.011 57.685 23.893 72.32 13.44 9.899-2.56 9.429 299.179 9.088l278.187-0.341 8.021-3.968zM832.853 390.272c0-146.987-0.384-156.629-6.827-169.301-4.395-8.576-15.829-19.499-25.259-24.149l-8.021-3.968h-561.493l-8.021 3.968c-9.429 4.651-20.864 15.573-25.259 24.149-6.443 12.672-6.827 22.315-6.827 169.301v143.061h641.707v-143.061zM552.064 318.208c-6.9-2.394-12.386-7.353-15.419-13.706l-0.069-0.16c-4.011-7.765-2.816-30.165 2.005-36.693 8.107-11.051 5.205-10.795 112.299-10.795 95.317 0 97.152 0.043 103.381 3.584 9.771 5.461 12.885 12.032 12.885 27.136 0 14.976-3.499 22.571-12.843 28.117-5.76 3.371-8.747 3.456-101.504 3.755-52.565 0.171-97.92-0.384-100.736-1.237z" />
<glyph unicode="&#xe938;" glyph-name="crop" d="M312.149 720.939c-11.221-6.699-12.544-10.923-13.184-41.899l-0.597-27.563-32.725-0.64c-30.635-0.64-33.152-0.939-39.168-4.651-9.301-5.76-12.203-12.288-12.203-27.52s2.901-21.76 12.203-27.52c6.016-3.712 8.491-4.011 39.296-4.651l32.896-0.64v-132.992c0-149.12-0.043-148.523 11.904-172.971 15.317-31.317 44.843-55.509 77.013-63.061 9.003-2.133 26.581-2.603 100.309-2.603 87.552-0.043 89.472 0.043 95.701 3.541 9.771 5.461 12.885 12.032 12.885 27.136 0 14.976-3.499 22.571-12.843 28.117-5.717 3.328-9.301 3.499-93.824 4.309-87.595 0.853-87.936 0.853-95.915 4.821-9.429 4.651-20.864 15.573-25.259 24.149-6.571 12.928-6.827 20.907-6.827 212.395 0 173.867-0.213 186.539-2.987 192-5.12 10.027-10.752 12.885-26.581 13.397-11.733 0.427-14.933-0.085-20.096-3.157zM444.587 658.816c-12.757-4.608-19.157-17.323-17.365-34.56 1.067-10.709 4.907-17.664 12.032-22.016 4.992-2.987 11.051-3.243 92.373-4.139 100.651-1.067 97.365-0.597 113.621-16.853 17.365-17.365 15.915 1.536 16.939-220.288 0.811-185.941 0.981-193.92 4.053-199.040 5.333-8.747 12.075-11.733 26.667-11.733 14.976 0 22.571 3.499 28.117 12.843 2.901 4.992 3.541 9.557 4.053 28.544l0.597 22.613h32.427c29.781 0 32.981 0.299 38.827 3.584 9.771 5.461 12.885 12.032 12.885 27.136 0 14.976-3.499 22.571-12.843 28.117-5.291 3.072-9.429 3.499-38.741 4.011l-32.768 0.555-0.512 144.512-0.469 144.512-4.693 13.781c-12.712 35.231-39.943 62.517-74.276 75.032l-0.86 0.274-14.037 4.693-89.6 0.469c-74.624 0.341-90.752 0-96.427-2.048z" />
<glyph unicode="&#xe939;" glyph-name="crown-vip" d="M496.64 765.099c-3.968-2.688-25.515-31.616-64.512-86.741-32.171-45.483-59.435-82.475-60.587-82.176-1.109 0.299-32.768 14.891-70.315 32.427-66.773 31.147-68.523 31.872-79.36 31.829-13.312-0.043-20.224-3.541-25.472-12.885l-3.584-6.4 0.427-184.32c0.469-183.424 0.469-184.405 4.011-189.184 2.577-3.164 5.693-5.777 9.225-7.726l0.161-0.082c5.504-2.816 23.595-2.987 305.365-2.987s299.861 0.171 305.365 2.987c3.694 2.032 6.81 4.644 9.342 7.751l0.045 0.057c3.541 4.779 3.541 5.717 3.925 187.733l0.427 182.912-4.693 8.448c-5.803 10.539-13.44 15.275-24.32 15.104-6.656-0.085-18.176-4.821-67.584-27.861-32.725-15.275-65.024-30.293-71.723-33.365l-12.203-5.589-58.069 82.219c-63.403 89.771-63.659 90.027-80.512 91.221-7.765 0.555-10.411 0-15.36-3.371zM557.227 616.661c68.608-97.835 65.28-93.952 81.024-93.952 8.832 0 12.203 1.408 96.896 41.088l32.853 15.36v-259.157h-512v259.157l32.853-15.36c84.693-39.68 88.064-41.088 96.896-41.088 9.728 0 16.171 3.456 23.296 12.544 2.645 3.413 26.709 37.333 53.461 75.435s49.024 69.248 49.493 69.248c0.469 0 20.821-28.501 45.227-63.275zM210.731 190.208c-12.715-3.712-18.432-14.293-17.621-32.469 0.683-15.104 3.712-20.907 13.525-25.899 5.504-2.816 23.595-2.987 305.365-2.987s299.861 0.171 305.365 2.987c9.813 4.992 12.843 10.795 13.525 26.027 0.512 11.349 0.043 14.421-3.157 20.096-2.341 3.992-5.402 7.311-9.032 9.876l-0.098 0.066c-5.248 3.157-13.355 3.243-304.043 3.541-169.771 0.128-300.885-0.384-303.829-1.237z" />
<glyph unicode="&#xe93a;" glyph-name="desk-lamp" d="M388.267 764.757c-12.507-3.921-23.15-10.748-31.535-19.714l-0.038-0.041c-8.363-8.619-17.749-25.515-86.4-155.477-42.368-80.171-77.824-148.48-78.805-151.765-5.291-17.749-3.712-36.139 4.608-53.931 7.168-15.275 18.475-26.709 34.048-34.432l12.885-6.357 236.544-0.939v-149.931l-54.187-0.512c-60.587-0.555-61.44-0.725-68.821-12.672-3.072-4.949-3.84-8.747-3.84-18.56 0-13.739 2.987-20.864 11.349-27.136 4.651-3.456 6.955-3.627 76.373-4.437 39.339-0.469 103.765-0.469 143.104 0 69.419 0.811 71.723 0.981 76.373 4.437 8.448 6.315 11.349 13.355 11.264 27.179-0.085 14.464-3.2 21.205-12.416 26.965-5.76 3.584-7.893 3.712-60.16 4.224l-54.187 0.512v149.931l236.544 0.939 12.885 6.357c37.376 18.475 51.755 61.653 33.365 100.437-2.987 6.357-38.101 73.173-77.995 148.523-81.152 153.259-79.829 151.168-103.509 162.389l-11.691 5.547-119.467 0.341c-93.227 0.256-120.96-0.171-126.293-1.877zM620.843 701.013c4.651-4.096 150.571-280.363 150.571-285.099-0.325-2.814-1.567-5.291-3.415-7.17l0.002 0.002c-3.371-3.371-5.675-3.413-256-3.413s-252.629 0.043-256 3.413c-1.852 1.874-3.096 4.352-3.408 7.113l-0.005 0.055c0 4.736 145.92 281.088 150.528 285.099 3.2 2.773 10.923 2.987 108.885 2.987s105.685-0.213 108.843-2.987z" />
<glyph unicode="&#xe93b;" glyph-name="diamond-vip" d="M316.8 710.869c-18.389-5.888-24.32-11.477-68.821-64.725-44.843-53.717-51.243-63.573-53.248-81.835-1.536-13.909 0.939-31.317 5.973-41.941 5.291-11.179 247.851-324.053 260.949-336.597 5.035-4.821 13.653-10.965 19.072-13.653 9.301-4.565 11.264-4.864 31.275-4.864 19.968 0 21.973 0.299 31.189 4.821 5.419 2.688 13.653 8.448 18.347 12.8 11.947 11.136 256.683 326.827 261.888 337.792 4.907 10.325 7.381 27.819 5.845 41.643-2.005 18.261-8.405 28.117-53.248 81.835-44.843 53.632-50.432 58.88-69.376 64.768-10.24 3.2-17.237 3.328-195.243 3.243-175.744-0.085-185.045-0.256-194.603-3.285zM688.128 649.216c2.176-1.024 20.437-21.76 40.619-46.080 29.653-35.797 36.693-45.227 36.693-49.365 0-4.096-23.168-34.859-123.435-163.797-90.667-116.565-124.587-159.019-127.744-159.787-2.859-0.725-5.589-0.043-8.32 2.133-2.261 1.749-59.008 73.856-126.165 160.213-101.419 130.432-122.027 157.824-121.643 161.707 0.299 3.243 11.733 18.304 37.12 48.896 20.181 24.32 38.229 45.013 40.107 45.995 4.949 2.517 347.477 2.603 352.768 0.085z" />
<glyph unicode="&#xe93c;" glyph-name="distribute-spacing-horizontal" d="M249.301 721.493c-3.694-2.032-6.81-4.644-9.342-7.751l-0.045-0.057c-3.541-4.821-3.541-4.864-3.968-263.68-0.427-243.883-0.256-259.2 2.56-264.704 5.035-9.813 10.795-12.843 26.027-13.525 11.349-0.512 14.421-0.043 20.096 3.157 3.992 2.341 7.311 5.402 9.876 9.032l0.066 0.098c3.157 5.248 3.243 12.459 3.243 263.936s-0.085 258.688-3.243 263.936c-5.163 8.533-14.037 12.544-27.691 12.544-7.808 0-13.696-1.024-17.579-2.987zM738.816 720.939c-3.747-2.379-6.874-5.383-9.317-8.897l-0.070-0.106c-3.157-5.205-3.243-12.928-3.243-263.936 0-251.477 0.085-258.688 3.243-263.936 1.792-2.987 6.272-7.083 9.941-9.131 5.675-3.2 8.747-3.669 20.096-3.157 15.232 0.683 21.035 3.712 26.027 13.525 2.816 5.504 2.987 21.547 2.987 262.699s-0.171 257.195-2.987 262.699c-5.12 10.027-10.752 12.885-26.581 13.397-11.733 0.427-14.933-0.085-20.096-3.157zM421.547 637.568c-13.056-4.053-25.557-15.061-32.469-28.501l-4.224-8.32v-305.493l4.224-8.32c5.12-9.984 15.275-20.48 24.704-25.515 6.827-3.669 7.808-3.712 98.219-3.712s91.392 0.043 98.219 3.712c9.429 5.035 19.584 15.531 24.704 25.515l4.224 8.32v305.493l-4.224 8.32c-5.85 10.697-14.246 19.353-24.399 25.348l-0.305 0.167c-6.827 3.669-8.149 3.712-95.659 4.011-48.811 0.171-90.667-0.299-93.013-1.024zM576.853 448v-128h-129.707v256h129.707v-128z" />
<glyph unicode="&#xe93d;" glyph-name="donut-chart" d="M478.72 787.541c-34.365-3.711-65.806-11.611-95.359-23.259l2.474 0.859c-44.501-17.664-97.877-53.888-104.747-71.083-4.224-10.453 0.043-23.467 11.051-33.792 7.552-7.125 11.904-9.173 19.285-9.173 7.851 0 13.995 3.115 29.909 15.275 22.976 18.087 49.662 32.827 78.551 42.855l1.919 0.58c73.472 25.088 149.803 19.413 217.984-16.213 27.52-14.379 45.611-27.947 71.040-53.333 28.885-28.8 34.688-31.232 51.499-21.589 17.451 9.984 23.68 25.728 16.043 40.704-4.48 8.832-33.963 39.637-51.285 53.632-45.12 36.371-100.44 61.915-161.015 71.834l-2.015 0.272c-21.333 3.285-65.067 4.523-85.333 2.432zM216.107 599.851c-10.155-3.072-15.957-11.349-24.917-35.669-12.643-34.876-19.953-75.13-19.953-117.091 0-9.591 0.382-19.092 1.131-28.49l-0.080 1.24c11.861-130.603 92.715-239.915 213.419-288.469 41.643-16.725 80.512-23.893 128.853-23.68 56.405 0.256 97.92 10.069 148.779 35.157 35.285 17.365 42.923 25.131 41.088 41.557-1.067 9.472-8.789 22.4-16.512 27.605-10.624 7.168-18.133 5.675-48.043-9.472-38.528-19.499-66.901-27.691-107.819-31.061-57.259-4.736-121.515 11.52-169.387 42.795-53.931 35.243-94.805 87.808-113.451 145.835-20.821 64.853-19.499 124.715 4.096 187.776 3.968 10.624 6.101 19.2 6.101 24.704 0 7.637-0.725 9.216-7.253 16-4.312 4.827-9.916 8.415-16.269 10.224l-0.243 0.059c-10.24 3.029-12.373 3.115-19.541 0.981zM803.84 548.821c-8.704-2.645-15.616-7.253-18.859-12.587-4.309-7.083-4.267-17.152 0.213-42.155 2.246-14.609 3.529-31.462 3.529-48.614 0-9.922-0.429-19.743-1.27-29.446l0.088 1.261c-3.669-33.109-13.824-65.323-31.488-99.84-7.211-14.080-13.611-27.733-14.293-30.336-5.291-21.291 28.587-43.819 48.043-31.957 6.101 3.712 16.981 19.541 26.581 38.699 23.027 44.943 36.522 98.049 36.522 154.306 0 23.374-2.33 46.204-6.769 68.27l0.37-2.203c-5.461 27.179-13.013 36.309-29.696 36.053-4.621-0.049-9.092-0.575-13.401-1.531l0.43 0.080z" />
<glyph unicode="&#xe93e;" glyph-name="drag-move" d="M502.613 767.403c-7.509-2.56-14.037-8.491-54.443-49.323-25.216-25.557-47.616-49.024-49.792-52.139-5.547-8.235-6.699-16.341-3.328-24.405 5.333-12.8 20.48-24.576 31.616-24.576 8.661 0 15.232 4.523 34.56 23.595l18.347 18.176v-178.304h-178.304l18.176 18.347c19.072 19.328 23.595 25.899 23.595 34.56 0 11.136-11.776 26.283-24.576 31.616-8.064 3.371-16.171 2.219-24.405-3.328-10.965-7.509-98.176-95.36-100.779-101.589-1.471-3.562-2.325-7.698-2.325-12.033 0-4.415 0.886-8.624 2.49-12.457l-0.079 0.213c2.517-6.016 90.027-94.080 100.693-101.376 8.235-5.547 16.341-6.699 24.405-3.328 12.8 5.333 24.576 20.48 24.576 31.616 0 8.661-4.523 15.232-23.595 34.56l-18.176 18.347h178.304v-178.304l-18.347 18.176c-19.328 19.072-25.899 23.595-34.56 23.595-11.136 0-26.283-11.776-31.616-24.576-3.371-8.064-2.219-16.171 3.328-24.405 7.040-10.283 95.317-98.176 101.12-100.608 3.718-1.399 8.015-2.209 12.501-2.209s8.783 0.81 12.753 2.291l-0.252-0.082c5.803 2.432 94.080 90.325 101.12 100.608 5.547 8.235 6.699 16.341 3.328 24.405-5.333 12.8-20.48 24.576-31.616 24.576-8.661 0-15.232-4.523-34.56-23.595l-18.347-18.176v178.304h178.304l-18.176-18.347c-19.072-19.328-23.595-25.899-23.595-34.56 0-11.136 11.776-26.283 24.576-31.616 8.064-3.371 16.171-2.219 24.405 3.328 10.283 7.040 98.176 95.317 100.608 101.12 1.399 3.718 2.209 8.015 2.209 12.501s-0.81 8.783-2.291 12.753l0.082-0.252c-2.432 5.803-90.325 94.080-100.608 101.12-8.235 5.547-16.341 6.699-24.405 3.328-12.8-5.333-24.576-20.48-24.576-31.616 0-8.661 4.523-15.232 23.595-34.56l18.176-18.347h-178.304v178.304l18.347-18.176c19.328-19.072 25.899-23.595 34.56-23.595 11.136 0 26.283 11.776 31.616 24.576 3.371 8.064 2.219 16.171-3.328 24.405-6.784 9.941-95.317 98.176-100.736 100.352-9.6 3.883-13.696 4.096-22.272 1.109z" />
<glyph unicode="&#xe93f;" glyph-name="drop" d="M494.507 764.8c-8.705-3.508-15.971-9.033-21.463-16.018l-0.084-0.11c-3.371-4.736-134.528-251.989-149.931-282.667-10.24-20.395-15.445-34.475-19.371-52.395-19.285-87.979 22.443-180.181 102.016-225.536 37.419-21.333 80.171-30.464 125.568-26.752 93.909 7.637 170.325 75.605 190.080 168.917 2.176 10.283 3.029 21.931 3.029 40.107-0.043 37.333-5.504 59.904-22.912 94.72-21.632 43.179-147.584 279.765-151.765 285.013-3.69 4.2-7.885 7.825-12.524 10.824l-0.234 0.141c-6.869 4.267-10.112 5.12-22.016 5.589-9.131 0.384-16.213-0.256-20.395-1.835zM579.797 559.36c36.565-69.248 68.608-131.157 71.168-137.6 6.16-15.346 9.733-33.136 9.733-51.761 0-22.116-5.038-43.055-14.029-61.732l0.37 0.854c-29.44-61.824-96.384-95.189-164.779-82.091-88.917 17.024-142.165 111.957-109.227 194.731 5.675 14.293 137.131 263.467 138.965 263.467 0.725 0 31.232-56.661 67.797-125.867z" />
<glyph unicode="&#xe940;" glyph-name="dropdown" d="M269.483 763.52c-9.557-5.547-12.629-12.117-12.629-27.093s3.499-22.571 12.843-28.117c5.803-3.371 8.32-3.456 125.397-3.456 114.56 0 119.68 0.128 124.843 3.243 3.729 2.631 6.789 5.95 9.051 9.795l0.080 0.147c5.077 9.003 4.48 30.848-0.981 38.315-8.235 11.221-2.816 10.795-133.845 10.752-117.163-0.043-118.699-0.085-124.757-3.584zM305.323 635.136c-14.037-5.76-20.907-10.453-29.867-20.395-9.051-9.812-15.385-22.258-17.733-36.061l-0.059-0.419c-2.389-14.421-2.176-312.832 0.213-325.717 5.333-29.013 29.653-53.333 58.667-58.667 12.971-2.432 439.168-2.603 453.717-0.213 23.837 4.22 43.389 19.492 53.442 40.226l0.19 0.436 6.4 12.971 0.469 165.291c0.469 181.547 0.853 174.421-9.813 191.232-7.017 10.511-15.873 19.217-26.186 25.857l-0.353 0.213c-16.512 9.685-4.437 9.216-251.691 9.216l-227.84-0.043-9.557-3.925zM764.587 572.587c3.285-3.285 3.413-5.675 3.413-64v-60.587h-448.981l0.512 60.416c0.427 56.619 0.683 60.629 3.712 64l3.243 3.584h217.344c215.083 0 217.387-0.043 220.757-3.413zM768 323.669c0-60.032-0.085-61.227-3.584-64.427-3.499-3.157-9.6-3.243-220.971-3.243-206.336 0-217.515 0.171-220.416 3.029-2.773 2.816-3.072 8.107-3.541 62.208-0.256 32.512-0.085 60.117 0.384 61.355 0.725 1.877 40.832 2.261 224.512 2.261h223.616v-61.184z" />
</font>
</defs>
</svg>
